%TF.GenerationSoftware,Altium Limited,Altium Designer,22.7.1 (60)*%
G04 Layer_Color=8421504*
%FSLAX45Y45*%
%MOMM*%
%TF.SameCoordinates,ACC7CE07-661A-46B9-B338-6EC4A6F7B09F*%
%TF.FilePolarity,Positive*%
%TF.FileFunction,Paste,Top*%
%TF.Part,Single*%
G01*
G75*
%TA.AperFunction,SMDPad,CuDef*%
G04:AMPARAMS|DCode=14|XSize=0.6mm|YSize=1.2mm|CornerRadius=0.075mm|HoleSize=0mm|Usage=FLASHONLY|Rotation=180.000|XOffset=0mm|YOffset=0mm|HoleType=Round|Shape=RoundedRectangle|*
%AMROUNDEDRECTD14*
21,1,0.60000,1.05000,0,0,180.0*
21,1,0.45000,1.20000,0,0,180.0*
1,1,0.15000,-0.22500,0.52500*
1,1,0.15000,0.22500,0.52500*
1,1,0.15000,0.22500,-0.52500*
1,1,0.15000,-0.22500,-0.52500*
%
%ADD14ROUNDEDRECTD14*%
G04:AMPARAMS|DCode=15|XSize=0.6mm|YSize=0.7mm|CornerRadius=0.075mm|HoleSize=0mm|Usage=FLASHONLY|Rotation=0.000|XOffset=0mm|YOffset=0mm|HoleType=Round|Shape=RoundedRectangle|*
%AMROUNDEDRECTD15*
21,1,0.60000,0.55000,0,0,0.0*
21,1,0.45000,0.70000,0,0,0.0*
1,1,0.15000,0.22500,-0.27500*
1,1,0.15000,-0.22500,-0.27500*
1,1,0.15000,-0.22500,0.27500*
1,1,0.15000,0.22500,0.27500*
%
%ADD15ROUNDEDRECTD15*%
G04:AMPARAMS|DCode=16|XSize=0.25mm|YSize=0.7mm|CornerRadius=0.0125mm|HoleSize=0mm|Usage=FLASHONLY|Rotation=180.000|XOffset=0mm|YOffset=0mm|HoleType=Round|Shape=RoundedRectangle|*
%AMROUNDEDRECTD16*
21,1,0.25000,0.67500,0,0,180.0*
21,1,0.22500,0.70000,0,0,180.0*
1,1,0.02500,-0.11250,0.33750*
1,1,0.02500,0.11250,0.33750*
1,1,0.02500,0.11250,-0.33750*
1,1,0.02500,-0.11250,-0.33750*
%
%ADD16ROUNDEDRECTD16*%
G04:AMPARAMS|DCode=17|XSize=0.25mm|YSize=0.7mm|CornerRadius=0.0125mm|HoleSize=0mm|Usage=FLASHONLY|Rotation=270.000|XOffset=0mm|YOffset=0mm|HoleType=Round|Shape=RoundedRectangle|*
%AMROUNDEDRECTD17*
21,1,0.25000,0.67500,0,0,270.0*
21,1,0.22500,0.70000,0,0,270.0*
1,1,0.02500,-0.33750,-0.11250*
1,1,0.02500,-0.33750,0.11250*
1,1,0.02500,0.33750,0.11250*
1,1,0.02500,0.33750,-0.11250*
%
%ADD17ROUNDEDRECTD17*%
G04:AMPARAMS|DCode=18|XSize=3.45mm|YSize=3.45mm|CornerRadius=0.1725mm|HoleSize=0mm|Usage=FLASHONLY|Rotation=270.000|XOffset=0mm|YOffset=0mm|HoleType=Round|Shape=RoundedRectangle|*
%AMROUNDEDRECTD18*
21,1,3.45000,3.10500,0,0,270.0*
21,1,3.10500,3.45000,0,0,270.0*
1,1,0.34500,-1.55250,-1.55250*
1,1,0.34500,-1.55250,1.55250*
1,1,0.34500,1.55250,1.55250*
1,1,0.34500,1.55250,-1.55250*
%
%ADD18ROUNDEDRECTD18*%
G04:AMPARAMS|DCode=26|XSize=0.6mm|YSize=1.7mm|CornerRadius=0.075mm|HoleSize=0mm|Usage=FLASHONLY|Rotation=0.000|XOffset=0mm|YOffset=0mm|HoleType=Round|Shape=RoundedRectangle|*
%AMROUNDEDRECTD26*
21,1,0.60000,1.55000,0,0,0.0*
21,1,0.45000,1.70000,0,0,0.0*
1,1,0.15000,0.22500,-0.77500*
1,1,0.15000,-0.22500,-0.77500*
1,1,0.15000,-0.22500,0.77500*
1,1,0.15000,0.22500,0.77500*
%
%ADD26ROUNDEDRECTD26*%
G04:AMPARAMS|DCode=27|XSize=0.6mm|YSize=0.7mm|CornerRadius=0.075mm|HoleSize=0mm|Usage=FLASHONLY|Rotation=90.000|XOffset=0mm|YOffset=0mm|HoleType=Round|Shape=RoundedRectangle|*
%AMROUNDEDRECTD27*
21,1,0.60000,0.55000,0,0,90.0*
21,1,0.45000,0.70000,0,0,90.0*
1,1,0.15000,0.27500,0.22500*
1,1,0.15000,0.27500,-0.22500*
1,1,0.15000,-0.27500,-0.22500*
1,1,0.15000,-0.27500,0.22500*
%
%ADD27ROUNDEDRECTD27*%
%ADD28R,0.60000X0.30000*%
%ADD29R,0.30000X0.60000*%
G04:AMPARAMS|DCode=30|XSize=3.2mm|YSize=2.1mm|CornerRadius=0.0525mm|HoleSize=0mm|Usage=FLASHONLY|Rotation=0.000|XOffset=0mm|YOffset=0mm|HoleType=Round|Shape=RoundedRectangle|*
%AMROUNDEDRECTD30*
21,1,3.20000,1.99500,0,0,0.0*
21,1,3.09500,2.10000,0,0,0.0*
1,1,0.10500,1.54750,-0.99750*
1,1,0.10500,-1.54750,-0.99750*
1,1,0.10500,-1.54750,0.99750*
1,1,0.10500,1.54750,0.99750*
%
%ADD30ROUNDEDRECTD30*%
G04:AMPARAMS|DCode=31|XSize=0.6mm|YSize=2.1mm|CornerRadius=0.051mm|HoleSize=0mm|Usage=FLASHONLY|Rotation=0.000|XOffset=0mm|YOffset=0mm|HoleType=Round|Shape=RoundedRectangle|*
%AMROUNDEDRECTD31*
21,1,0.60000,1.99800,0,0,0.0*
21,1,0.49800,2.10000,0,0,0.0*
1,1,0.10200,0.24900,-0.99900*
1,1,0.10200,-0.24900,-0.99900*
1,1,0.10200,-0.24900,0.99900*
1,1,0.10200,0.24900,0.99900*
%
%ADD31ROUNDEDRECTD31*%
%ADD32R,0.80000X0.80000*%
G04:AMPARAMS|DCode=33|XSize=1mm|YSize=1.7mm|CornerRadius=0.125mm|HoleSize=0mm|Usage=FLASHONLY|Rotation=0.000|XOffset=0mm|YOffset=0mm|HoleType=Round|Shape=RoundedRectangle|*
%AMROUNDEDRECTD33*
21,1,1.00000,1.45000,0,0,0.0*
21,1,0.75000,1.70000,0,0,0.0*
1,1,0.25000,0.37500,-0.72500*
1,1,0.25000,-0.37500,-0.72500*
1,1,0.25000,-0.37500,0.72500*
1,1,0.25000,0.37500,0.72500*
%
%ADD33ROUNDEDRECTD33*%
G04:AMPARAMS|DCode=34|XSize=1mm|YSize=1.7mm|CornerRadius=0.125mm|HoleSize=0mm|Usage=FLASHONLY|Rotation=90.000|XOffset=0mm|YOffset=0mm|HoleType=Round|Shape=RoundedRectangle|*
%AMROUNDEDRECTD34*
21,1,1.00000,1.45000,0,0,90.0*
21,1,0.75000,1.70000,0,0,90.0*
1,1,0.25000,0.72500,0.37500*
1,1,0.25000,0.72500,-0.37500*
1,1,0.25000,-0.72500,-0.37500*
1,1,0.25000,-0.72500,0.37500*
%
%ADD34ROUNDEDRECTD34*%
G04:AMPARAMS|DCode=35|XSize=0.8mm|YSize=1mm|CornerRadius=0.1mm|HoleSize=0mm|Usage=FLASHONLY|Rotation=270.000|XOffset=0mm|YOffset=0mm|HoleType=Round|Shape=RoundedRectangle|*
%AMROUNDEDRECTD35*
21,1,0.80000,0.80000,0,0,270.0*
21,1,0.60000,1.00000,0,0,270.0*
1,1,0.20000,-0.40000,-0.30000*
1,1,0.20000,-0.40000,0.30000*
1,1,0.20000,0.40000,0.30000*
1,1,0.20000,0.40000,-0.30000*
%
%ADD35ROUNDEDRECTD35*%
G04:AMPARAMS|DCode=36|XSize=0.8mm|YSize=1mm|CornerRadius=0.1mm|HoleSize=0mm|Usage=FLASHONLY|Rotation=180.000|XOffset=0mm|YOffset=0mm|HoleType=Round|Shape=RoundedRectangle|*
%AMROUNDEDRECTD36*
21,1,0.80000,0.80000,0,0,180.0*
21,1,0.60000,1.00000,0,0,180.0*
1,1,0.20000,-0.30000,0.40000*
1,1,0.20000,0.30000,0.40000*
1,1,0.20000,0.30000,-0.40000*
1,1,0.20000,-0.30000,-0.40000*
%
%ADD36ROUNDEDRECTD36*%
G04:AMPARAMS|DCode=37|XSize=1.4mm|YSize=1.7mm|CornerRadius=0.175mm|HoleSize=0mm|Usage=FLASHONLY|Rotation=270.000|XOffset=0mm|YOffset=0mm|HoleType=Round|Shape=RoundedRectangle|*
%AMROUNDEDRECTD37*
21,1,1.40000,1.35000,0,0,270.0*
21,1,1.05000,1.70000,0,0,270.0*
1,1,0.35000,-0.67500,-0.52500*
1,1,0.35000,-0.67500,0.52500*
1,1,0.35000,0.67500,0.52500*
1,1,0.35000,0.67500,-0.52500*
%
%ADD37ROUNDEDRECTD37*%
%ADD38R,0.55000X0.55000*%
G04:AMPARAMS|DCode=39|XSize=0.6mm|YSize=1.5mm|CornerRadius=0mm|HoleSize=0mm|Usage=FLASHONLY|Rotation=240.000|XOffset=0mm|YOffset=0mm|HoleType=Round|Shape=Rectangle|*
%AMROTATEDRECTD39*
4,1,4,-0.49952,0.63481,0.79952,-0.11519,0.49952,-0.63481,-0.79952,0.11519,-0.49952,0.63481,0.0*
%
%ADD39ROTATEDRECTD39*%

G04:AMPARAMS|DCode=40|XSize=0.3mm|YSize=1.5mm|CornerRadius=0mm|HoleSize=0mm|Usage=FLASHONLY|Rotation=240.000|XOffset=0mm|YOffset=0mm|HoleType=Round|Shape=Rectangle|*
%AMROTATEDRECTD40*
4,1,4,-0.57452,0.50490,0.72452,-0.24510,0.57452,-0.50490,-0.72452,0.24510,-0.57452,0.50490,0.0*
%
%ADD40ROTATEDRECTD40*%

G04:AMPARAMS|DCode=41|XSize=1.3mm|YSize=1.1mm|CornerRadius=0.055mm|HoleSize=0mm|Usage=FLASHONLY|Rotation=270.000|XOffset=0mm|YOffset=0mm|HoleType=Round|Shape=RoundedRectangle|*
%AMROUNDEDRECTD41*
21,1,1.30000,0.99000,0,0,270.0*
21,1,1.19000,1.10000,0,0,270.0*
1,1,0.11000,-0.49500,-0.59500*
1,1,0.11000,-0.49500,0.59500*
1,1,0.11000,0.49500,0.59500*
1,1,0.11000,0.49500,-0.59500*
%
%ADD41ROUNDEDRECTD41*%
%ADD42R,1.00000X0.75000*%
%ADD43R,0.75000X1.00000*%
G04:AMPARAMS|DCode=45|XSize=0.5mm|YSize=0.25mm|CornerRadius=0.05mm|HoleSize=0mm|Usage=FLASHONLY|Rotation=180.000|XOffset=0mm|YOffset=0mm|HoleType=Round|Shape=RoundedRectangle|*
%AMROUNDEDRECTD45*
21,1,0.50000,0.15000,0,0,180.0*
21,1,0.40000,0.25000,0,0,180.0*
1,1,0.10000,-0.20000,0.07500*
1,1,0.10000,0.20000,0.07500*
1,1,0.10000,0.20000,-0.07500*
1,1,0.10000,-0.20000,-0.07500*
%
%ADD45ROUNDEDRECTD45*%
G36*
X3895000Y2825000D02*
Y2824005D01*
X3894239Y2822168D01*
X3892832Y2820761D01*
X3890995Y2820000D01*
X3890000D01*
D01*
X3810000D01*
X3809006D01*
X3807168Y2820761D01*
X3805761Y2822168D01*
X3805000Y2824005D01*
Y2825000D01*
D01*
Y2885000D01*
Y2885994D01*
X3805761Y2887832D01*
X3807168Y2889239D01*
X3809006Y2890000D01*
X3810000D01*
D01*
X3890000D01*
X3890995D01*
X3892832Y2889239D01*
X3894239Y2887832D01*
X3895000Y2885994D01*
Y2885000D01*
D01*
Y2825000D01*
D02*
G37*
G36*
Y2915000D02*
Y2914005D01*
X3894239Y2912168D01*
X3892832Y2910761D01*
X3890995Y2910000D01*
X3890000D01*
D01*
X3810000D01*
X3809006D01*
X3807168Y2910761D01*
X3805761Y2912168D01*
X3805000Y2914005D01*
Y2915000D01*
D01*
Y2975000D01*
Y2975995D01*
X3805761Y2977832D01*
X3807168Y2979239D01*
X3809006Y2980000D01*
X3810000D01*
D01*
X3890000D01*
X3890995D01*
X3892832Y2979239D01*
X3894239Y2977832D01*
X3895000Y2975995D01*
Y2975000D01*
D01*
Y2915000D01*
D02*
G37*
D14*
X2020000Y2470000D02*
D03*
X1925000D02*
D03*
X1830000D02*
D03*
Y2230000D02*
D03*
X1925000D02*
D03*
X2020000D02*
D03*
D15*
X3025000Y1850000D02*
D03*
X3125000D02*
D03*
X3325000Y850000D02*
D03*
X3425000D02*
D03*
X4800000Y1475000D02*
D03*
X4700000D02*
D03*
X4700000Y1825000D02*
D03*
X4600000D02*
D03*
X2250000Y1250000D02*
D03*
X2350000D02*
D03*
X2250000Y1375000D02*
D03*
X2350000D02*
D03*
X3225000Y1400000D02*
D03*
X3125000D02*
D03*
X2350000Y925000D02*
D03*
X2250000D02*
D03*
X2350000Y1050000D02*
D03*
X2250000D02*
D03*
X2250000Y800000D02*
D03*
X2350000D02*
D03*
X4050000Y825000D02*
D03*
X3950000D02*
D03*
X4050000Y950000D02*
D03*
X3950000D02*
D03*
X3500000Y3925000D02*
D03*
X3600000D02*
D03*
X437457Y2044973D02*
D03*
X537457D02*
D03*
X3750000Y2700000D02*
D03*
X3850000D02*
D03*
X3975000D02*
D03*
X4075000D02*
D03*
D16*
X2575000Y1260000D02*
D03*
X2625000D02*
D03*
X2675000D02*
D03*
X2725000D02*
D03*
X2775000D02*
D03*
X2825000D02*
D03*
X2875000D02*
D03*
X2925000D02*
D03*
Y1740000D02*
D03*
X2875000D02*
D03*
X2825000D02*
D03*
X2775000D02*
D03*
X2725000D02*
D03*
X2675000D02*
D03*
X2625000D02*
D03*
X2575000D02*
D03*
D17*
X2990000Y1325000D02*
D03*
Y1375000D02*
D03*
Y1425000D02*
D03*
Y1475000D02*
D03*
Y1525000D02*
D03*
Y1575000D02*
D03*
Y1625000D02*
D03*
Y1675000D02*
D03*
X2510000D02*
D03*
Y1625000D02*
D03*
Y1575000D02*
D03*
Y1525000D02*
D03*
Y1475000D02*
D03*
Y1425000D02*
D03*
Y1375000D02*
D03*
Y1325000D02*
D03*
D18*
X2750000Y1500000D02*
D03*
D26*
X2959500Y2493500D02*
D03*
X3086500D02*
D03*
X3213500D02*
D03*
X3340500D02*
D03*
X2959500Y3156500D02*
D03*
X3086500D02*
D03*
X3213500D02*
D03*
X3340500D02*
D03*
D27*
X4700000Y1700000D02*
D03*
Y1600000D02*
D03*
X3425000Y4150000D02*
D03*
Y4050000D02*
D03*
X3475000Y2550000D02*
D03*
Y2650000D02*
D03*
X2600000Y1125000D02*
D03*
Y1025000D02*
D03*
X2700000Y1125000D02*
D03*
Y1025000D02*
D03*
X2500000Y850000D02*
D03*
Y950000D02*
D03*
X3175000Y2300000D02*
D03*
Y2200000D02*
D03*
X3325000Y2300000D02*
D03*
Y2200000D02*
D03*
X3000000Y2300000D02*
D03*
Y2200000D02*
D03*
X2750000Y2300000D02*
D03*
Y2200000D02*
D03*
X2875000Y2300000D02*
D03*
Y2200000D02*
D03*
X4625000Y2150000D02*
D03*
Y2050000D02*
D03*
X2250000Y1500000D02*
D03*
Y1600000D02*
D03*
X1975000Y2950000D02*
D03*
Y2850000D02*
D03*
X2125000Y1500000D02*
D03*
Y1600000D02*
D03*
Y1825000D02*
D03*
Y1725000D02*
D03*
X1850000Y2950000D02*
D03*
Y2850000D02*
D03*
X775000Y2750000D02*
D03*
Y2650000D02*
D03*
X925000Y2750000D02*
D03*
Y2650000D02*
D03*
X500000Y2300000D02*
D03*
Y2200000D02*
D03*
X3325000Y1750000D02*
D03*
Y1650000D02*
D03*
X625000Y2200000D02*
D03*
Y2300000D02*
D03*
X3625000Y2775000D02*
D03*
Y2875000D02*
D03*
D28*
X4383750Y1525000D02*
D03*
Y1625000D02*
D03*
Y1575000D02*
D03*
X4566250D02*
D03*
Y1525000D02*
D03*
Y1625000D02*
D03*
D29*
X4450000Y1691250D02*
D03*
X4400000Y1691200D02*
D03*
X4500000Y1691250D02*
D03*
X4550000D02*
D03*
X4400000Y1458800D02*
D03*
X4450000D02*
D03*
X4500000D02*
D03*
X4550000D02*
D03*
D30*
X2450000Y2677500D02*
D03*
D31*
X2196000Y3272500D02*
D03*
X2323000D02*
D03*
X2450000D02*
D03*
X2577000D02*
D03*
X2704000D02*
D03*
D32*
X2025000Y4020000D02*
D03*
X2120000Y3780000D02*
D03*
X1930000D02*
D03*
D33*
X2355000Y3750000D02*
D03*
X2545000D02*
D03*
D34*
X3200000Y4030000D02*
D03*
Y4220000D02*
D03*
D35*
X2925000Y3550000D02*
D03*
Y3400000D02*
D03*
X2950000Y3850000D02*
D03*
Y3700000D02*
D03*
D36*
X2450000Y3500000D02*
D03*
X2300000D02*
D03*
X2625000Y900000D02*
D03*
X2775000D02*
D03*
X2150000Y2675000D02*
D03*
X2000000D02*
D03*
X1675000D02*
D03*
X1825000D02*
D03*
D37*
X2750000Y3964300D02*
D03*
Y3735700D02*
D03*
D38*
X4427500Y2247500D02*
D03*
X4522500D02*
D03*
X4427500Y2152500D02*
D03*
X4522500D02*
D03*
D39*
X1791817Y3340346D02*
D03*
X1831817Y3409628D02*
D03*
X1511817Y2855372D02*
D03*
X1551817Y2924654D02*
D03*
D40*
X1759317Y3284054D02*
D03*
X1734317Y3240753D02*
D03*
X1709317Y3197452D02*
D03*
X1584317Y2980946D02*
D03*
X1609317Y3024247D02*
D03*
X1634317Y3067548D02*
D03*
X1659317Y3110850D02*
D03*
X1684317Y3154151D02*
D03*
D41*
X1780000Y1560000D02*
D03*
X1970000D02*
D03*
X1780000Y1790000D02*
D03*
X1970000D02*
D03*
D42*
X3800000Y3387500D02*
D03*
Y3762500D02*
D03*
X3200000D02*
D03*
Y3387500D02*
D03*
D43*
X294674Y1317416D02*
D03*
X669674D02*
D03*
Y1917416D02*
D03*
X294674D02*
D03*
D45*
X3755000Y2825000D02*
D03*
Y2875000D02*
D03*
Y2925000D02*
D03*
Y2975000D02*
D03*
X3945000D02*
D03*
Y2925000D02*
D03*
Y2875000D02*
D03*
Y2825000D02*
D03*
%TF.MD5,588b103c1b383ca75e6de0de56fe1c31*%
M02*
