%TF.GenerationSoftware,Altium Limited,Altium Designer,22.7.1 (60)*%
G04 Layer_Physical_Order=4*
G04 Layer_Color=16711680*
%FSLAX45Y45*%
%MOMM*%
%TF.SameCoordinates,ACC7CE07-661A-46B9-B338-6EC4A6F7B09F*%
%TF.FilePolarity,Positive*%
%TF.FileFunction,Copper,L4,Bot,Signal*%
%TF.Part,Single*%
G01*
G75*
%TA.AperFunction,Conductor*%
%ADD10C,0.50000*%
%ADD46C,0.20000*%
%ADD47C,0.70000*%
%ADD48C,0.30000*%
%ADD49C,0.80000*%
%ADD50C,1.00000*%
%ADD51C,0.40000*%
%TA.AperFunction,WasherPad*%
%ADD52C,3.00000*%
%ADD53C,2.50000*%
%ADD54C,4.00000*%
%TA.AperFunction,ComponentPad*%
%ADD55C,2.50000*%
%ADD56C,0.60000*%
G04:AMPARAMS|DCode=57|XSize=2.2mm|YSize=1mm|CornerRadius=0mm|HoleSize=0mm|Usage=FLASHONLY|Rotation=330.000|XOffset=0mm|YOffset=0mm|HoleType=Round|Shape=Round|*
%AMOVALD57*
21,1,1.20000,1.00000,0.00000,0.00000,330.0*
1,1,1.00000,-0.51962,0.30000*
1,1,1.00000,0.51962,-0.30000*
%
%ADD57OVALD57*%

G04:AMPARAMS|DCode=58|XSize=1.9mm|YSize=1mm|CornerRadius=0mm|HoleSize=0mm|Usage=FLASHONLY|Rotation=330.000|XOffset=0mm|YOffset=0mm|HoleType=Round|Shape=Round|*
%AMOVALD58*
21,1,0.90000,1.00000,0.00000,0.00000,330.0*
1,1,1.00000,-0.38971,0.22500*
1,1,1.00000,0.38971,-0.22500*
%
%ADD58OVALD58*%

%TA.AperFunction,ViaPad*%
%ADD59C,0.70000*%
%TA.AperFunction,TestPad*%
G04:AMPARAMS|DCode=60|XSize=0.5mm|YSize=0.5mm|CornerRadius=0.0875mm|HoleSize=0mm|Usage=FLASHONLY|Rotation=270.000|XOffset=0mm|YOffset=0mm|HoleType=Round|Shape=RoundedRectangle|*
%AMROUNDEDRECTD60*
21,1,0.50000,0.32500,0,0,270.0*
21,1,0.32500,0.50000,0,0,270.0*
1,1,0.17500,-0.16250,-0.16250*
1,1,0.17500,-0.16250,0.16250*
1,1,0.17500,0.16250,0.16250*
1,1,0.17500,0.16250,-0.16250*
%
%ADD60ROUNDEDRECTD60*%
G04:AMPARAMS|DCode=61|XSize=0.5mm|YSize=0.5mm|CornerRadius=0.0875mm|HoleSize=0mm|Usage=FLASHONLY|Rotation=0.000|XOffset=0mm|YOffset=0mm|HoleType=Round|Shape=RoundedRectangle|*
%AMROUNDEDRECTD61*
21,1,0.50000,0.32500,0,0,0.0*
21,1,0.32500,0.50000,0,0,0.0*
1,1,0.17500,0.16250,-0.16250*
1,1,0.17500,-0.16250,-0.16250*
1,1,0.17500,-0.16250,0.16250*
1,1,0.17500,0.16250,0.16250*
%
%ADD61ROUNDEDRECTD61*%
D10*
X2678827Y778827D02*
Y837908D01*
X2740919Y900000D01*
X2845711D01*
X2675000Y775000D02*
X2678827Y778827D01*
X4275000Y1675000D02*
Y1875000D01*
X4325000Y1925000D01*
X4700000D01*
X4800000Y1825000D01*
X550000Y2475000D02*
X775000D01*
X500000Y2425000D02*
X550000Y2475000D01*
X925000Y1925000D02*
Y2325000D01*
X775000Y2475000D02*
X925000Y2325000D01*
X1970714Y1150000D02*
X2350000D01*
X1895714Y1075000D02*
X1970714Y1150000D01*
X2845711Y900000D02*
X2875000Y870710D01*
Y825000D02*
Y870710D01*
Y825000D02*
X2950000Y750000D01*
X3325000D02*
X3350000Y775000D01*
X2950000Y750000D02*
X3325000D01*
X4700000Y1670710D02*
X4729289Y1700000D01*
X4700000Y1375000D02*
Y1670710D01*
X4729289Y1700000D02*
X4800000D01*
Y1825000D01*
X4275000Y1675000D02*
X4280412D01*
X3975000Y2600400D02*
X3975400Y2600000D01*
X4207083D01*
X3625000Y2675000D02*
X3628827Y2671173D01*
X3744588Y2600000D02*
X3750000D01*
X3628827Y2671173D02*
X3673415D01*
X4207083Y2600000D02*
X4257083Y2650000D01*
X4400000D01*
X4450000Y2525000D02*
Y2600000D01*
X4400000Y2650000D02*
X4450000Y2600000D01*
X2300000Y4075000D02*
X2325000D01*
X2200000Y4000000D02*
Y4075000D01*
X2200000Y4075000D01*
X4275000Y2425000D02*
X4450000D01*
X4450000Y2425000D01*
X4450463Y2424537D02*
X4495050D01*
X4569588Y2350000D02*
X4575000D01*
X4450000Y2425000D02*
X4450463Y2424537D01*
X4495050D02*
X4569588Y2350000D01*
D46*
X3752406Y1235518D02*
X3756500Y1239612D01*
Y1503169D02*
X3760594Y1507263D01*
X3756500Y1239612D02*
Y1503169D01*
X1807501Y1307501D02*
X1827138Y1327138D01*
X1732500Y1302500D02*
X1737500Y1307501D01*
X1807501D01*
X1827138Y1327138D02*
X2194989D01*
X4100000Y2025000D02*
X4425000D01*
X4025000Y1950000D02*
X4100000Y2025000D01*
X2194989Y1327138D02*
X2272126Y1250000D01*
X3125000Y850000D02*
X3225000D01*
X2932542Y1082542D02*
X3025000Y990084D01*
Y850000D02*
Y990084D01*
X3275000Y2300000D02*
X3425000D01*
X3224753Y2350247D02*
X3275000Y2300000D01*
X3224753Y2350247D02*
Y2642147D01*
X2900000Y1250000D02*
X3000000Y1150000D01*
X2272126Y1250000D02*
X2900000D01*
X3725000Y2450000D02*
X3800000D01*
X3550000Y2625000D02*
X3725000Y2450000D01*
X3550000Y2625000D02*
Y3075000D01*
X3399101Y2874101D02*
X3450000Y2925000D01*
X3399101Y2625899D02*
Y2874101D01*
Y2625899D02*
X3575000Y2450000D01*
X3875000Y1225000D02*
Y1475000D01*
X4000000Y1325000D02*
X4150000Y1175000D01*
X4000000Y1325000D02*
X4000000D01*
X4150000Y1175000D02*
X4300000D01*
X4400000Y1275000D01*
X4500000D02*
X4575000Y1350000D01*
X4400000Y1275000D02*
X4500000D01*
X4275000Y1300000D02*
Y1550000D01*
X3336470Y1525000D02*
X3361470Y1550000D01*
X3275000Y1525000D02*
X3336470D01*
X3361470Y1550000D02*
X3375000D01*
X3175000Y1525000D02*
Y1580000D01*
X3212561Y1617561D01*
Y1621757D01*
X3097489Y2952511D02*
Y3004061D01*
X3087922Y3013628D02*
X3097489Y3004061D01*
Y2952511D02*
X3325000Y2725000D01*
D47*
X3025000Y1400000D02*
X3125000Y1300000D01*
X3025000Y1400000D02*
Y1425000D01*
X3582811Y3192189D02*
X3650000Y3125000D01*
X2817189Y3192189D02*
X3582811D01*
X3673415Y2671173D02*
X3744588Y2600000D01*
X3625000Y2675000D02*
X3650000Y2700000D01*
Y3125000D01*
D48*
X3750000Y2593768D02*
X3818768Y2525000D01*
X3750000Y2593768D02*
Y2600000D01*
X3818768Y2525000D02*
X4275000D01*
D49*
X1450000Y1900000D02*
X1475000Y1925000D01*
Y2025000D01*
X1600000Y2150000D02*
X1750000D01*
X1475000Y2025000D02*
X1600000Y2150000D01*
X2365466Y2340466D02*
X2659533D01*
X2275000Y2250000D02*
X2365466Y2340466D01*
X2659533D02*
X2825000Y2175000D01*
X2650000Y3025000D02*
X2817189Y3192189D01*
X3975000Y2600400D02*
Y2824600D01*
X3050000Y4225000D02*
X3125000Y4150000D01*
Y3850000D02*
Y4150000D01*
X2650000Y3375000D02*
X3125000Y3850000D01*
X2650000Y3025000D02*
Y3375000D01*
X3500000Y3300000D02*
X3724200D01*
X3250000Y3550000D02*
X3500000Y3300000D01*
X3724200D02*
X3849600Y3174600D01*
Y2950000D02*
Y3174600D01*
Y2950000D02*
X3975000Y2824600D01*
D50*
X2350000Y3025000D02*
X2350000Y3025000D01*
X2350000Y2925000D02*
Y3025000D01*
X2450000Y2925000D02*
Y3025000D01*
X2550000Y2925000D02*
Y3025000D01*
X2550000Y3025000D01*
X2650000Y2925000D02*
Y3025000D01*
X2550000Y2925000D02*
X2650000D01*
X2450000D02*
X2550000D01*
X2350000D02*
X2450000D01*
X2250000D02*
X2350000D01*
X2250000D02*
Y3025000D01*
X2250000Y3025000D01*
X2550000D02*
X2650000D01*
X2450000D02*
X2550000D01*
X2350000D02*
X2450000D01*
X2250000D02*
X2350000D01*
X1075000Y1775000D02*
X1325000D01*
X925000Y1925000D02*
X1075000Y1775000D01*
X1400000Y1075000D02*
X1895714D01*
X1325000Y1150000D02*
X1400000Y1075000D01*
X3425000Y850000D02*
X3525000D01*
X3350000Y775000D02*
X3425000Y850000D01*
X3550000Y875000D02*
Y1000000D01*
X3525000Y850000D02*
X3550000Y875000D01*
X1325000Y1150000D02*
Y1775000D01*
X1450000Y1900000D01*
X1750000Y2150000D02*
X2175000D01*
X2275000Y2250000D01*
X1825000Y2350000D02*
Y2720319D01*
X1712092Y2833227D02*
X1825000Y2720319D01*
X2825000Y1950000D02*
Y2175000D01*
Y1950000D02*
X3025000Y1750000D01*
X4000000Y975000D02*
Y1000000D01*
Y975000D02*
X4150000Y825000D01*
X4000000Y1000000D02*
X4050000Y1050000D01*
X3550000Y1000000D02*
X4000000D01*
X3550000D02*
Y1625000D01*
X3425000Y1750000D02*
X3550000Y1625000D01*
X3425000Y1750000D02*
X4200000D01*
X4275000Y1675000D01*
X3025000Y1425000D02*
Y1750000D01*
X3425000D01*
X3025000D02*
Y2675000D01*
X2775000Y2925000D02*
X3025000Y2675000D01*
X2650000Y2925000D02*
X2775000D01*
X2025000Y3275000D02*
X2200000D01*
X2400000Y3475000D02*
Y3925000D01*
X2200000Y3275000D02*
X2400000Y3475000D01*
X2025000Y3175000D02*
Y3275000D01*
X1925000Y3175000D02*
X2025000D01*
X1712092Y2833227D02*
X1925000Y3046135D01*
Y3175000D01*
X2325000Y4075000D02*
X2400000Y4000000D01*
Y3925000D02*
Y4000000D01*
X2200000Y3967875D02*
Y4000000D01*
Y3967875D02*
X2242829Y3925046D01*
D51*
X3175000Y1950000D02*
X3425000Y2200000D01*
X3475000D01*
X3525000Y2250000D01*
Y2366900D01*
X3451371Y2440529D02*
X3525000Y2366900D01*
D52*
X1224900Y2118300D02*
D03*
X3824900D02*
D03*
D53*
X2524900D02*
D03*
D54*
X4601852Y910632D02*
D03*
X430650Y912472D02*
D03*
X2531083Y4526275D02*
D03*
D55*
X1925000Y4275000D02*
D03*
X1700000Y3975000D02*
D03*
X4250000Y2925000D02*
D03*
X4025000Y3275000D02*
D03*
D56*
X1418564Y2943853D02*
D03*
X1708564Y3446147D02*
D03*
D57*
X1823115Y3544556D02*
D03*
X1390615Y2795444D02*
D03*
D58*
X1026884Y3005444D02*
D03*
X1459384Y3754556D02*
D03*
D59*
X1050067Y1521031D02*
D03*
X1013246Y841679D02*
D03*
X3480457Y726090D02*
D03*
X3649555Y734475D02*
D03*
X3832627Y730282D02*
D03*
X568466Y1472614D02*
D03*
X423325Y1438747D02*
D03*
X1586410Y772383D02*
D03*
X1850219Y869016D02*
D03*
X2072475Y933760D02*
D03*
X1992269Y1250717D02*
D03*
X3310085Y1073721D02*
D03*
X3128195D02*
D03*
X3378409Y1300852D02*
D03*
X3752406Y1235518D02*
D03*
X3661730Y1299098D02*
D03*
X3760594Y1507263D02*
D03*
X3665039Y1448797D02*
D03*
X3870978Y1113008D02*
D03*
X3983459Y1462857D02*
D03*
X4075263Y1395038D02*
D03*
X4192679Y1246122D02*
D03*
X4178038Y1574736D02*
D03*
X4362204Y2736293D02*
D03*
X3684760Y2345146D02*
D03*
X3395614Y2022475D02*
D03*
X3600000Y1900000D02*
D03*
X2172523Y2339279D02*
D03*
X3001178Y2879759D02*
D03*
X2052995Y3046483D02*
D03*
X3292977Y3870405D02*
D03*
X3919215Y3624270D02*
D03*
X3600000Y3500000D02*
D03*
X3701122Y3642964D02*
D03*
X3506397Y3664773D02*
D03*
X2549904Y3949851D02*
D03*
X2950260Y4133671D02*
D03*
X2922219Y4340859D02*
D03*
X1355068Y3646079D02*
D03*
X1600000Y3600000D02*
D03*
X1500000Y3500000D02*
D03*
X1300000D02*
D03*
X1400000Y3200000D02*
D03*
X1200000Y3100000D02*
D03*
X654681Y2759055D02*
D03*
X1121384Y2543654D02*
D03*
X1200000Y2700000D02*
D03*
X900000Y2900000D02*
D03*
X1500000Y2200000D02*
D03*
X1700000Y2400000D02*
D03*
X1500000D02*
D03*
X1300000D02*
D03*
X900000Y2500000D02*
D03*
X1100000Y2400000D02*
D03*
X800000Y1900000D02*
D03*
Y2100000D02*
D03*
X1500000Y1700000D02*
D03*
X1200000Y1500000D02*
D03*
X767583Y1451439D02*
D03*
X1058559Y1384377D02*
D03*
X791087Y1181262D02*
D03*
X422116Y1606868D02*
D03*
X511157Y1331123D02*
D03*
X1732500Y1302500D02*
D03*
X2543720Y3497157D02*
D03*
X1901097Y665600D02*
D03*
X650000Y2650000D02*
D03*
X1050000D02*
D03*
X2800000Y775000D02*
D03*
X2675000D02*
D03*
X2557934Y750000D02*
D03*
X2450000D02*
D03*
X425000Y1825000D02*
D03*
Y1925000D02*
D03*
X725000Y2300000D02*
D03*
X4500000Y1825000D02*
D03*
X4425000Y2025000D02*
D03*
X4400000Y1825000D02*
D03*
X500000Y2425000D02*
D03*
X2125000Y1250000D02*
D03*
X3225000Y850000D02*
D03*
X2150000Y1050000D02*
D03*
X1600000Y1950000D02*
D03*
X2400000Y2475000D02*
D03*
X2525000D02*
D03*
X2650000D02*
D03*
X2275000D02*
D03*
X2000000Y1950000D02*
D03*
X2025000Y2350000D02*
D03*
X2200000Y1950000D02*
D03*
X2350000Y1150000D02*
D03*
X1700000Y1950000D02*
D03*
X1600000Y1850000D02*
D03*
X2100000Y1950000D02*
D03*
X1675000Y2550000D02*
D03*
X2725000Y2700000D02*
D03*
X3225000Y1300000D02*
D03*
X3850000Y2600400D02*
D03*
X3975000D02*
D03*
X3800000Y2450000D02*
D03*
X3475000Y2750000D02*
D03*
X2955439Y3015953D02*
D03*
X2950000Y3950000D02*
D03*
X3050000Y4225000D02*
D03*
X3525000Y4050000D02*
D03*
X3400000Y3925000D02*
D03*
X3800000Y3500000D02*
D03*
X3075000Y3375000D02*
D03*
X3050000Y3549600D02*
D03*
X2800000Y4100000D02*
D03*
X2700000D02*
D03*
X3250000Y3550000D02*
D03*
X2650000Y3025000D02*
D03*
Y2925000D02*
D03*
X4175000Y2700000D02*
D03*
X3749200Y3075000D02*
D03*
X3550000D02*
D03*
X3950000D02*
D03*
X3750000Y2600000D02*
D03*
X1712092Y2833227D02*
D03*
X1300000Y2575000D02*
D03*
X1425000D02*
D03*
X1550000D02*
D03*
X2025000Y3275000D02*
D03*
X2075000Y3450000D02*
D03*
Y3550000D02*
D03*
X2175000Y3650000D02*
D03*
X2075000D02*
D03*
X1975000D02*
D03*
X2725000Y2575000D02*
D03*
X2550000Y2925000D02*
D03*
X2450000D02*
D03*
X2350000D02*
D03*
X2250000D02*
D03*
X2550000Y3025000D02*
D03*
X2450000D02*
D03*
X2350000D02*
D03*
X2250000D02*
D03*
X2400000Y3925000D02*
D03*
X2242829Y3925046D02*
D03*
X2025000Y3175000D02*
D03*
X1925000D02*
D03*
X1825000Y2350000D02*
D03*
X3025000Y1750000D02*
D03*
X3254378Y1897082D02*
D03*
X2750000Y1625000D02*
D03*
X2625000D02*
D03*
Y1375000D02*
D03*
X2750000D02*
D03*
X2875000D02*
D03*
Y1500000D02*
D03*
X2625000D02*
D03*
X2750000D02*
D03*
X2875000Y1625000D02*
D03*
X1700000Y1425000D02*
D03*
X3450000Y2925000D02*
D03*
X3575000Y2450000D02*
D03*
X3625000Y2675000D02*
D03*
X4025000Y1950000D02*
D03*
X3875000Y1475000D02*
D03*
Y1225000D02*
D03*
X3125000Y1300000D02*
D03*
X4000000Y1325000D02*
D03*
X4325000Y2250000D02*
D03*
X4575000Y2350000D02*
D03*
X4525000Y2025000D02*
D03*
X4800000Y1600000D02*
D03*
X4575000Y1350000D02*
D03*
X4275000Y1675000D02*
D03*
X4800000Y1825000D02*
D03*
Y1700000D02*
D03*
X4450000Y1350000D02*
D03*
X4800000Y1375000D02*
D03*
X4700000D02*
D03*
X4275000Y1300000D02*
D03*
X4150000Y825000D02*
D03*
X4050000Y1050000D02*
D03*
X4275000Y1550000D02*
D03*
X2932542Y1082542D02*
D03*
X3525000Y850000D02*
D03*
X3000000Y1150000D02*
D03*
X2150000Y2550000D02*
D03*
X3425000Y2300000D02*
D03*
Y1750000D02*
D03*
X3375000Y1550000D02*
D03*
X3212561Y1621757D02*
D03*
X3451371Y2440529D02*
D03*
X3087922Y3013628D02*
D03*
X3224753Y2642147D02*
D03*
X3325000Y2725000D02*
D03*
X3175000Y1950000D02*
D03*
X2225000Y1825000D02*
D03*
X2125000Y1400000D02*
D03*
X2000000Y1425000D02*
D03*
X1900000D02*
D03*
X1800000D02*
D03*
X1600000Y1450000D02*
D03*
Y1550000D02*
D03*
Y1650000D02*
D03*
Y1750000D02*
D03*
X1800000Y1950000D02*
D03*
X1900000D02*
D03*
D60*
X4275000Y2425000D02*
D03*
Y2525000D02*
D03*
X4450000Y2425000D02*
D03*
Y2525000D02*
D03*
D61*
X3125000Y850000D02*
D03*
X3025000D02*
D03*
X2200000Y4075000D02*
D03*
X2300000D02*
D03*
X3275000Y1525000D02*
D03*
X3175000D02*
D03*
%TF.MD5,78b976ebd3f4480f34eccb9d849b861a*%
M02*
