%TF.GenerationSoftware,Altium Limited,Altium Designer,22.7.1 (60)*%
G04 Layer_Color=16711935*
%FSLAX45Y45*%
%MOMM*%
%TF.SameCoordinates,ACC7CE07-661A-46B9-B338-6EC4A6F7B09F*%
%TF.FilePolarity,Negative*%
%TF.FileFunction,Soldermask,Bot*%
%TF.Part,Single*%
G01*
G75*
%TA.AperFunction,TestPad*%
G04:AMPARAMS|DCode=60|XSize=0.5mm|YSize=0.5mm|CornerRadius=0.0875mm|HoleSize=0mm|Usage=FLASHONLY|Rotation=270.000|XOffset=0mm|YOffset=0mm|HoleType=Round|Shape=RoundedRectangle|*
%AMROUNDEDRECTD60*
21,1,0.50000,0.32500,0,0,270.0*
21,1,0.32500,0.50000,0,0,270.0*
1,1,0.17500,-0.16250,-0.16250*
1,1,0.17500,-0.16250,0.16250*
1,1,0.17500,0.16250,0.16250*
1,1,0.17500,0.16250,-0.16250*
%
%ADD60ROUNDEDRECTD60*%
G04:AMPARAMS|DCode=61|XSize=0.5mm|YSize=0.5mm|CornerRadius=0.0875mm|HoleSize=0mm|Usage=FLASHONLY|Rotation=0.000|XOffset=0mm|YOffset=0mm|HoleType=Round|Shape=RoundedRectangle|*
%AMROUNDEDRECTD61*
21,1,0.50000,0.32500,0,0,0.0*
21,1,0.32500,0.50000,0,0,0.0*
1,1,0.17500,0.16250,-0.16250*
1,1,0.17500,-0.16250,-0.16250*
1,1,0.17500,-0.16250,0.16250*
1,1,0.17500,0.16250,0.16250*
%
%ADD61ROUNDEDRECTD61*%
%TA.AperFunction,WasherPad*%
%ADD64C,4.00000*%
%ADD65C,3.50000*%
%ADD66C,7.00000*%
%TA.AperFunction,ComponentPad*%
%ADD67C,2.70320*%
%ADD68C,1.20000*%
G04:AMPARAMS|DCode=69|XSize=2.3mm|YSize=1.1mm|CornerRadius=0mm|HoleSize=0mm|Usage=FLASHONLY|Rotation=330.000|XOffset=0mm|YOffset=0mm|HoleType=Round|Shape=Round|*
%AMOVALD69*
21,1,1.20000,1.10000,0.00000,0.00000,330.0*
1,1,1.10000,-0.51962,0.30000*
1,1,1.10000,0.51962,-0.30000*
%
%ADD69OVALD69*%

G04:AMPARAMS|DCode=70|XSize=2mm|YSize=1.1mm|CornerRadius=0mm|HoleSize=0mm|Usage=FLASHONLY|Rotation=330.000|XOffset=0mm|YOffset=0mm|HoleType=Round|Shape=Round|*
%AMOVALD70*
21,1,0.90000,1.10000,0.00000,0.00000,330.0*
1,1,1.10000,-0.38971,0.22500*
1,1,1.10000,0.38971,-0.22500*
%
%ADD70OVALD70*%

G36*
X3025000Y825000D02*
X3125000D01*
Y875000D01*
X3025000D01*
Y825000D01*
D02*
G37*
G36*
X3175000Y1500000D02*
X3275000D01*
Y1550000D01*
X3175000D01*
Y1500000D01*
D02*
G37*
G36*
X2200000Y4050000D02*
X2300000D01*
Y4100000D01*
X2200000D01*
Y4050000D01*
D02*
G37*
G36*
X4250000Y2525000D02*
Y2425000D01*
X4300000D01*
Y2525000D01*
X4250000D01*
D02*
G37*
G36*
X4425000Y2525000D02*
Y2425000D01*
X4475000D01*
Y2525000D01*
X4425000D01*
D02*
G37*
D60*
X4275000Y2425000D02*
D03*
Y2525000D02*
D03*
X4450000Y2425000D02*
D03*
Y2525000D02*
D03*
D61*
X3125000Y850000D02*
D03*
X3025000D02*
D03*
X2200000Y4075000D02*
D03*
X2300000D02*
D03*
X3275000Y1525000D02*
D03*
X3175000D02*
D03*
D64*
X1224900Y2118300D02*
D03*
X3824900D02*
D03*
D65*
X2524900D02*
D03*
D66*
X4601852Y910632D02*
D03*
X430650Y912472D02*
D03*
X2531083Y4526275D02*
D03*
D67*
X1925000Y4275000D02*
D03*
X1700000Y3975000D02*
D03*
X4250000Y2925000D02*
D03*
X4025000Y3275000D02*
D03*
D68*
X1418564Y2943853D02*
D03*
X1708564Y3446147D02*
D03*
D69*
X1823115Y3544556D02*
D03*
X1390615Y2795444D02*
D03*
D70*
X1026884Y3005444D02*
D03*
X1459384Y3754556D02*
D03*
%TF.MD5,7078f68d8b3c778aac1270019c2848d7*%
M02*
