%TF.GenerationSoftware,Altium Limited,Altium Designer,22.7.1 (60)*%
G04 Layer_Color=0*
%FSLAX45Y45*%
%MOMM*%
%TF.SameCoordinates,ACC7CE07-661A-46B9-B338-6EC4A6F7B09F*%
%TF.FilePolarity,Positive*%
%TF.FileFunction,Plated,1,4,PTH,Drill*%
%TF.Part,Single*%
G01*
G75*
%TA.AperFunction,ComponentDrill*%
%ADD109C,1.50000*%
G04:AMPARAMS|DCode=110|XSize=1.75mm|YSize=0.55mm|CornerRadius=0mm|HoleSize=0mm|Usage=FLASHONLY|Rotation=330.000|XOffset=0mm|YOffset=0mm|HoleType=Round|Shape=Round|*
%AMOVALD110*
21,1,1.20000,0.55000,0.00000,0.00000,330.0*
1,1,0.55000,-0.51962,0.30000*
1,1,0.55000,0.51962,-0.30000*
%
%ADD110OVALD110*%

G04:AMPARAMS|DCode=111|XSize=1.45mm|YSize=0.55mm|CornerRadius=0mm|HoleSize=0mm|Usage=FLASHONLY|Rotation=330.000|XOffset=0mm|YOffset=0mm|HoleType=Round|Shape=Round|*
%AMOVALD111*
21,1,0.90000,0.55000,0.00000,0.00000,330.0*
1,1,0.55000,-0.38971,0.22500*
1,1,0.55000,0.38971,-0.22500*
%
%ADD111OVALD111*%

%TA.AperFunction,ViaDrill,NotFilled*%
%ADD112C,0.30000*%
D109*
X1925000Y4275000D02*
D03*
X1700000Y3975000D02*
D03*
X4250000Y2925000D02*
D03*
X4025000Y3275000D02*
D03*
D110*
X1823115Y3544556D02*
D03*
X1390615Y2795444D02*
D03*
D111*
X1026884Y3005444D02*
D03*
X1459384Y3754556D02*
D03*
D112*
X1050067Y1521031D02*
D03*
X1013246Y841679D02*
D03*
X3480457Y726090D02*
D03*
X3649555Y734475D02*
D03*
X3832627Y730282D02*
D03*
X568466Y1472614D02*
D03*
X423325Y1438747D02*
D03*
X1586410Y772383D02*
D03*
X1850219Y869016D02*
D03*
X2072475Y933760D02*
D03*
X1992269Y1250717D02*
D03*
X3310085Y1073721D02*
D03*
X3128195D02*
D03*
X3378409Y1300852D02*
D03*
X3752406Y1235518D02*
D03*
X3661730Y1299098D02*
D03*
X3760594Y1507263D02*
D03*
X3665039Y1448797D02*
D03*
X3870978Y1113008D02*
D03*
X3983459Y1462857D02*
D03*
X4075263Y1395038D02*
D03*
X4192679Y1246122D02*
D03*
X4178038Y1574736D02*
D03*
X4362204Y2736293D02*
D03*
X3684760Y2345146D02*
D03*
X3395614Y2022475D02*
D03*
X3600000Y1900000D02*
D03*
X2172523Y2339279D02*
D03*
X3001178Y2879759D02*
D03*
X2052995Y3046483D02*
D03*
X3292977Y3870405D02*
D03*
X3919215Y3624270D02*
D03*
X3600000Y3500000D02*
D03*
X3701122Y3642964D02*
D03*
X3506397Y3664773D02*
D03*
X2549904Y3949851D02*
D03*
X2950260Y4133671D02*
D03*
X2922219Y4340859D02*
D03*
X1355068Y3646079D02*
D03*
X1600000Y3600000D02*
D03*
X1500000Y3500000D02*
D03*
X1300000D02*
D03*
X1400000Y3200000D02*
D03*
X1200000Y3100000D02*
D03*
X654681Y2759055D02*
D03*
X1121384Y2543654D02*
D03*
X1200000Y2700000D02*
D03*
X900000Y2900000D02*
D03*
X1500000Y2200000D02*
D03*
X1700000Y2400000D02*
D03*
X1500000D02*
D03*
X1300000D02*
D03*
X900000Y2500000D02*
D03*
X1100000Y2400000D02*
D03*
X800000Y1900000D02*
D03*
Y2100000D02*
D03*
X1500000Y1700000D02*
D03*
X1200000Y1500000D02*
D03*
X767583Y1451439D02*
D03*
X1058559Y1384377D02*
D03*
X791087Y1181262D02*
D03*
X422116Y1606868D02*
D03*
X511157Y1331123D02*
D03*
X1732500Y1302500D02*
D03*
X2543720Y3497157D02*
D03*
X1901097Y665600D02*
D03*
X650000Y2650000D02*
D03*
X1050000D02*
D03*
X2800000Y775000D02*
D03*
X2675000D02*
D03*
X2557934Y750000D02*
D03*
X2450000D02*
D03*
X425000Y1825000D02*
D03*
Y1925000D02*
D03*
X725000Y2300000D02*
D03*
X4500000Y1825000D02*
D03*
X4425000Y2025000D02*
D03*
X4400000Y1825000D02*
D03*
X500000Y2425000D02*
D03*
X2125000Y1250000D02*
D03*
X3225000Y850000D02*
D03*
X2150000Y1050000D02*
D03*
X1600000Y1950000D02*
D03*
X2400000Y2475000D02*
D03*
X2525000D02*
D03*
X2650000D02*
D03*
X2275000D02*
D03*
X2000000Y1950000D02*
D03*
X2025000Y2350000D02*
D03*
X2200000Y1950000D02*
D03*
X2350000Y1150000D02*
D03*
X1700000Y1950000D02*
D03*
X1600000Y1850000D02*
D03*
X2100000Y1950000D02*
D03*
X1675000Y2550000D02*
D03*
X2725000Y2700000D02*
D03*
X3225000Y1300000D02*
D03*
X3850000Y2600400D02*
D03*
X3975000D02*
D03*
X3800000Y2450000D02*
D03*
X3475000Y2750000D02*
D03*
X2955439Y3015953D02*
D03*
X2950000Y3950000D02*
D03*
X3050000Y4225000D02*
D03*
X3525000Y4050000D02*
D03*
X3400000Y3925000D02*
D03*
X3800000Y3500000D02*
D03*
X3075000Y3375000D02*
D03*
X3050000Y3549600D02*
D03*
X2800000Y4100000D02*
D03*
X2700000D02*
D03*
X3250000Y3550000D02*
D03*
X2650000Y3025000D02*
D03*
Y2925000D02*
D03*
X4175000Y2700000D02*
D03*
X3749200Y3075000D02*
D03*
X3550000D02*
D03*
X3950000D02*
D03*
X3750000Y2600000D02*
D03*
X1712092Y2833227D02*
D03*
X1300000Y2575000D02*
D03*
X1425000D02*
D03*
X1550000D02*
D03*
X2025000Y3275000D02*
D03*
X2075000Y3450000D02*
D03*
Y3550000D02*
D03*
X2175000Y3650000D02*
D03*
X2075000D02*
D03*
X1975000D02*
D03*
X2725000Y2575000D02*
D03*
X2550000Y2925000D02*
D03*
X2450000D02*
D03*
X2350000D02*
D03*
X2250000D02*
D03*
X2550000Y3025000D02*
D03*
X2450000D02*
D03*
X2350000D02*
D03*
X2250000D02*
D03*
X2400000Y3925000D02*
D03*
X2242829Y3925046D02*
D03*
X2025000Y3175000D02*
D03*
X1925000D02*
D03*
X1825000Y2350000D02*
D03*
X3025000Y1750000D02*
D03*
X3254378Y1897082D02*
D03*
X2750000Y1625000D02*
D03*
X2625000D02*
D03*
Y1375000D02*
D03*
X2750000D02*
D03*
X2875000D02*
D03*
Y1500000D02*
D03*
X2625000D02*
D03*
X2750000D02*
D03*
X2875000Y1625000D02*
D03*
X1700000Y1425000D02*
D03*
X3450000Y2925000D02*
D03*
X3575000Y2450000D02*
D03*
X3625000Y2675000D02*
D03*
X4025000Y1950000D02*
D03*
X3875000Y1475000D02*
D03*
Y1225000D02*
D03*
X3125000Y1300000D02*
D03*
X4000000Y1325000D02*
D03*
X4325000Y2250000D02*
D03*
X4575000Y2350000D02*
D03*
X4525000Y2025000D02*
D03*
X4800000Y1600000D02*
D03*
X4575000Y1350000D02*
D03*
X4275000Y1675000D02*
D03*
X4800000Y1825000D02*
D03*
Y1700000D02*
D03*
X4450000Y1350000D02*
D03*
X4800000Y1375000D02*
D03*
X4700000D02*
D03*
X4275000Y1300000D02*
D03*
X4150000Y825000D02*
D03*
X4050000Y1050000D02*
D03*
X4275000Y1550000D02*
D03*
X2932542Y1082542D02*
D03*
X3525000Y850000D02*
D03*
X3000000Y1150000D02*
D03*
X2150000Y2550000D02*
D03*
X3425000Y2300000D02*
D03*
Y1750000D02*
D03*
X3375000Y1550000D02*
D03*
X3212561Y1621757D02*
D03*
X3451371Y2440529D02*
D03*
X3087922Y3013628D02*
D03*
X3224753Y2642147D02*
D03*
X3325000Y2725000D02*
D03*
X3175000Y1950000D02*
D03*
X2225000Y1825000D02*
D03*
X2125000Y1400000D02*
D03*
X2000000Y1425000D02*
D03*
X1900000D02*
D03*
X1800000D02*
D03*
X1600000Y1450000D02*
D03*
Y1550000D02*
D03*
Y1650000D02*
D03*
Y1750000D02*
D03*
X1800000Y1950000D02*
D03*
X1900000D02*
D03*
%TF.MD5,2f5895ebcf55f2dda5dfa0be268965a9*%
M02*
