%TF.GenerationSoftware,Altium Limited,Altium Designer,22.7.1 (60)*%
G04 Layer_Physical_Order=1*
G04 Layer_Color=255*
%FSLAX45Y45*%
%MOMM*%
%TF.SameCoordinates,ACC7CE07-661A-46B9-B338-6EC4A6F7B09F*%
%TF.FilePolarity,Positive*%
%TF.FileFunction,Copper,L1,Top,Signal*%
%TF.Part,Single*%
G01*
G75*
%TA.AperFunction,Conductor*%
%ADD10C,0.50000*%
%ADD11C,0.60000*%
%ADD12C,0.34849*%
%ADD13C,0.28107*%
%TA.AperFunction,SMDPad,CuDef*%
G04:AMPARAMS|DCode=14|XSize=0.6mm|YSize=1.2mm|CornerRadius=0.075mm|HoleSize=0mm|Usage=FLASHONLY|Rotation=180.000|XOffset=0mm|YOffset=0mm|HoleType=Round|Shape=RoundedRectangle|*
%AMROUNDEDRECTD14*
21,1,0.60000,1.05000,0,0,180.0*
21,1,0.45000,1.20000,0,0,180.0*
1,1,0.15000,-0.22500,0.52500*
1,1,0.15000,0.22500,0.52500*
1,1,0.15000,0.22500,-0.52500*
1,1,0.15000,-0.22500,-0.52500*
%
%ADD14ROUNDEDRECTD14*%
G04:AMPARAMS|DCode=15|XSize=0.6mm|YSize=0.7mm|CornerRadius=0.075mm|HoleSize=0mm|Usage=FLASHONLY|Rotation=0.000|XOffset=0mm|YOffset=0mm|HoleType=Round|Shape=RoundedRectangle|*
%AMROUNDEDRECTD15*
21,1,0.60000,0.55000,0,0,0.0*
21,1,0.45000,0.70000,0,0,0.0*
1,1,0.15000,0.22500,-0.27500*
1,1,0.15000,-0.22500,-0.27500*
1,1,0.15000,-0.22500,0.27500*
1,1,0.15000,0.22500,0.27500*
%
%ADD15ROUNDEDRECTD15*%
G04:AMPARAMS|DCode=16|XSize=0.25mm|YSize=0.7mm|CornerRadius=0.0125mm|HoleSize=0mm|Usage=FLASHONLY|Rotation=180.000|XOffset=0mm|YOffset=0mm|HoleType=Round|Shape=RoundedRectangle|*
%AMROUNDEDRECTD16*
21,1,0.25000,0.67500,0,0,180.0*
21,1,0.22500,0.70000,0,0,180.0*
1,1,0.02500,-0.11250,0.33750*
1,1,0.02500,0.11250,0.33750*
1,1,0.02500,0.11250,-0.33750*
1,1,0.02500,-0.11250,-0.33750*
%
%ADD16ROUNDEDRECTD16*%
G04:AMPARAMS|DCode=17|XSize=0.25mm|YSize=0.7mm|CornerRadius=0.0125mm|HoleSize=0mm|Usage=FLASHONLY|Rotation=270.000|XOffset=0mm|YOffset=0mm|HoleType=Round|Shape=RoundedRectangle|*
%AMROUNDEDRECTD17*
21,1,0.25000,0.67500,0,0,270.0*
21,1,0.22500,0.70000,0,0,270.0*
1,1,0.02500,-0.33750,-0.11250*
1,1,0.02500,-0.33750,0.11250*
1,1,0.02500,0.33750,0.11250*
1,1,0.02500,0.33750,-0.11250*
%
%ADD17ROUNDEDRECTD17*%
G04:AMPARAMS|DCode=18|XSize=3.45mm|YSize=3.45mm|CornerRadius=0.1725mm|HoleSize=0mm|Usage=FLASHONLY|Rotation=270.000|XOffset=0mm|YOffset=0mm|HoleType=Round|Shape=RoundedRectangle|*
%AMROUNDEDRECTD18*
21,1,3.45000,3.10500,0,0,270.0*
21,1,3.10500,3.45000,0,0,270.0*
1,1,0.34500,-1.55250,-1.55250*
1,1,0.34500,-1.55250,1.55250*
1,1,0.34500,1.55250,1.55250*
1,1,0.34500,1.55250,-1.55250*
%
%ADD18ROUNDEDRECTD18*%
%TA.AperFunction,TestPad*%
%ADD19R,0.50000X3.94000*%
%ADD20R,2.70000X0.50000*%
%ADD21R,0.50000X2.64000*%
%ADD22R,2.00000X0.50000*%
%ADD23R,0.50000X4.90000*%
%ADD24R,5.00000X0.50000*%
%ADD25R,0.90000X4.90000*%
%TA.AperFunction,SMDPad,CuDef*%
G04:AMPARAMS|DCode=26|XSize=0.6mm|YSize=1.7mm|CornerRadius=0.075mm|HoleSize=0mm|Usage=FLASHONLY|Rotation=0.000|XOffset=0mm|YOffset=0mm|HoleType=Round|Shape=RoundedRectangle|*
%AMROUNDEDRECTD26*
21,1,0.60000,1.55000,0,0,0.0*
21,1,0.45000,1.70000,0,0,0.0*
1,1,0.15000,0.22500,-0.77500*
1,1,0.15000,-0.22500,-0.77500*
1,1,0.15000,-0.22500,0.77500*
1,1,0.15000,0.22500,0.77500*
%
%ADD26ROUNDEDRECTD26*%
G04:AMPARAMS|DCode=27|XSize=0.6mm|YSize=0.7mm|CornerRadius=0.075mm|HoleSize=0mm|Usage=FLASHONLY|Rotation=90.000|XOffset=0mm|YOffset=0mm|HoleType=Round|Shape=RoundedRectangle|*
%AMROUNDEDRECTD27*
21,1,0.60000,0.55000,0,0,90.0*
21,1,0.45000,0.70000,0,0,90.0*
1,1,0.15000,0.27500,0.22500*
1,1,0.15000,0.27500,-0.22500*
1,1,0.15000,-0.27500,-0.22500*
1,1,0.15000,-0.27500,0.22500*
%
%ADD27ROUNDEDRECTD27*%
%ADD28R,0.60000X0.30000*%
%ADD29R,0.30000X0.60000*%
G04:AMPARAMS|DCode=30|XSize=3.2mm|YSize=2.1mm|CornerRadius=0.0525mm|HoleSize=0mm|Usage=FLASHONLY|Rotation=0.000|XOffset=0mm|YOffset=0mm|HoleType=Round|Shape=RoundedRectangle|*
%AMROUNDEDRECTD30*
21,1,3.20000,1.99500,0,0,0.0*
21,1,3.09500,2.10000,0,0,0.0*
1,1,0.10500,1.54750,-0.99750*
1,1,0.10500,-1.54750,-0.99750*
1,1,0.10500,-1.54750,0.99750*
1,1,0.10500,1.54750,0.99750*
%
%ADD30ROUNDEDRECTD30*%
G04:AMPARAMS|DCode=31|XSize=0.6mm|YSize=2.1mm|CornerRadius=0.051mm|HoleSize=0mm|Usage=FLASHONLY|Rotation=0.000|XOffset=0mm|YOffset=0mm|HoleType=Round|Shape=RoundedRectangle|*
%AMROUNDEDRECTD31*
21,1,0.60000,1.99800,0,0,0.0*
21,1,0.49800,2.10000,0,0,0.0*
1,1,0.10200,0.24900,-0.99900*
1,1,0.10200,-0.24900,-0.99900*
1,1,0.10200,-0.24900,0.99900*
1,1,0.10200,0.24900,0.99900*
%
%ADD31ROUNDEDRECTD31*%
%ADD32R,0.80000X0.80000*%
G04:AMPARAMS|DCode=33|XSize=1mm|YSize=1.7mm|CornerRadius=0.125mm|HoleSize=0mm|Usage=FLASHONLY|Rotation=0.000|XOffset=0mm|YOffset=0mm|HoleType=Round|Shape=RoundedRectangle|*
%AMROUNDEDRECTD33*
21,1,1.00000,1.45000,0,0,0.0*
21,1,0.75000,1.70000,0,0,0.0*
1,1,0.25000,0.37500,-0.72500*
1,1,0.25000,-0.37500,-0.72500*
1,1,0.25000,-0.37500,0.72500*
1,1,0.25000,0.37500,0.72500*
%
%ADD33ROUNDEDRECTD33*%
G04:AMPARAMS|DCode=34|XSize=1mm|YSize=1.7mm|CornerRadius=0.125mm|HoleSize=0mm|Usage=FLASHONLY|Rotation=90.000|XOffset=0mm|YOffset=0mm|HoleType=Round|Shape=RoundedRectangle|*
%AMROUNDEDRECTD34*
21,1,1.00000,1.45000,0,0,90.0*
21,1,0.75000,1.70000,0,0,90.0*
1,1,0.25000,0.72500,0.37500*
1,1,0.25000,0.72500,-0.37500*
1,1,0.25000,-0.72500,-0.37500*
1,1,0.25000,-0.72500,0.37500*
%
%ADD34ROUNDEDRECTD34*%
G04:AMPARAMS|DCode=35|XSize=0.8mm|YSize=1mm|CornerRadius=0.1mm|HoleSize=0mm|Usage=FLASHONLY|Rotation=270.000|XOffset=0mm|YOffset=0mm|HoleType=Round|Shape=RoundedRectangle|*
%AMROUNDEDRECTD35*
21,1,0.80000,0.80000,0,0,270.0*
21,1,0.60000,1.00000,0,0,270.0*
1,1,0.20000,-0.40000,-0.30000*
1,1,0.20000,-0.40000,0.30000*
1,1,0.20000,0.40000,0.30000*
1,1,0.20000,0.40000,-0.30000*
%
%ADD35ROUNDEDRECTD35*%
G04:AMPARAMS|DCode=36|XSize=0.8mm|YSize=1mm|CornerRadius=0.1mm|HoleSize=0mm|Usage=FLASHONLY|Rotation=180.000|XOffset=0mm|YOffset=0mm|HoleType=Round|Shape=RoundedRectangle|*
%AMROUNDEDRECTD36*
21,1,0.80000,0.80000,0,0,180.0*
21,1,0.60000,1.00000,0,0,180.0*
1,1,0.20000,-0.30000,0.40000*
1,1,0.20000,0.30000,0.40000*
1,1,0.20000,0.30000,-0.40000*
1,1,0.20000,-0.30000,-0.40000*
%
%ADD36ROUNDEDRECTD36*%
G04:AMPARAMS|DCode=37|XSize=1.4mm|YSize=1.7mm|CornerRadius=0.175mm|HoleSize=0mm|Usage=FLASHONLY|Rotation=270.000|XOffset=0mm|YOffset=0mm|HoleType=Round|Shape=RoundedRectangle|*
%AMROUNDEDRECTD37*
21,1,1.40000,1.35000,0,0,270.0*
21,1,1.05000,1.70000,0,0,270.0*
1,1,0.35000,-0.67500,-0.52500*
1,1,0.35000,-0.67500,0.52500*
1,1,0.35000,0.67500,0.52500*
1,1,0.35000,0.67500,-0.52500*
%
%ADD37ROUNDEDRECTD37*%
%ADD38R,0.55000X0.55000*%
G04:AMPARAMS|DCode=39|XSize=0.6mm|YSize=1.5mm|CornerRadius=0mm|HoleSize=0mm|Usage=FLASHONLY|Rotation=240.000|XOffset=0mm|YOffset=0mm|HoleType=Round|Shape=Rectangle|*
%AMROTATEDRECTD39*
4,1,4,-0.49952,0.63481,0.79952,-0.11519,0.49952,-0.63481,-0.79952,0.11519,-0.49952,0.63481,0.0*
%
%ADD39ROTATEDRECTD39*%

G04:AMPARAMS|DCode=40|XSize=0.3mm|YSize=1.5mm|CornerRadius=0mm|HoleSize=0mm|Usage=FLASHONLY|Rotation=240.000|XOffset=0mm|YOffset=0mm|HoleType=Round|Shape=Rectangle|*
%AMROTATEDRECTD40*
4,1,4,-0.57452,0.50490,0.72452,-0.24510,0.57452,-0.50490,-0.72452,0.24510,-0.57452,0.50490,0.0*
%
%ADD40ROTATEDRECTD40*%

G04:AMPARAMS|DCode=41|XSize=1.3mm|YSize=1.1mm|CornerRadius=0.055mm|HoleSize=0mm|Usage=FLASHONLY|Rotation=270.000|XOffset=0mm|YOffset=0mm|HoleType=Round|Shape=RoundedRectangle|*
%AMROUNDEDRECTD41*
21,1,1.30000,0.99000,0,0,270.0*
21,1,1.19000,1.10000,0,0,270.0*
1,1,0.11000,-0.49500,-0.59500*
1,1,0.11000,-0.49500,0.59500*
1,1,0.11000,0.49500,0.59500*
1,1,0.11000,0.49500,-0.59500*
%
%ADD41ROUNDEDRECTD41*%
%ADD42R,1.00000X0.75000*%
%ADD43R,0.75000X1.00000*%
G04:AMPARAMS|DCode=44|XSize=0.9mm|YSize=1.6mm|CornerRadius=0.0495mm|HoleSize=0mm|Usage=FLASHONLY|Rotation=180.000|XOffset=0mm|YOffset=0mm|HoleType=Round|Shape=RoundedRectangle|*
%AMROUNDEDRECTD44*
21,1,0.90000,1.50100,0,0,180.0*
21,1,0.80100,1.60000,0,0,180.0*
1,1,0.09900,-0.40050,0.75050*
1,1,0.09900,0.40050,0.75050*
1,1,0.09900,0.40050,-0.75050*
1,1,0.09900,-0.40050,-0.75050*
%
%ADD44ROUNDEDRECTD44*%
G04:AMPARAMS|DCode=45|XSize=0.5mm|YSize=0.25mm|CornerRadius=0.05mm|HoleSize=0mm|Usage=FLASHONLY|Rotation=180.000|XOffset=0mm|YOffset=0mm|HoleType=Round|Shape=RoundedRectangle|*
%AMROUNDEDRECTD45*
21,1,0.50000,0.15000,0,0,180.0*
21,1,0.40000,0.25000,0,0,180.0*
1,1,0.10000,-0.20000,0.07500*
1,1,0.10000,0.20000,0.07500*
1,1,0.10000,0.20000,-0.07500*
1,1,0.10000,-0.20000,-0.07500*
%
%ADD45ROUNDEDRECTD45*%
%TA.AperFunction,Conductor*%
%ADD46C,0.20000*%
%ADD47C,0.70000*%
%ADD48C,0.30000*%
%ADD49C,0.80000*%
%ADD50C,1.00000*%
%ADD51C,0.40000*%
%TA.AperFunction,WasherPad*%
%ADD52C,3.00000*%
%ADD53C,2.50000*%
%ADD54C,4.00000*%
%TA.AperFunction,ComponentPad*%
%ADD55C,2.50000*%
%ADD56C,0.60000*%
G04:AMPARAMS|DCode=57|XSize=2.2mm|YSize=1mm|CornerRadius=0mm|HoleSize=0mm|Usage=FLASHONLY|Rotation=330.000|XOffset=0mm|YOffset=0mm|HoleType=Round|Shape=Round|*
%AMOVALD57*
21,1,1.20000,1.00000,0.00000,0.00000,330.0*
1,1,1.00000,-0.51962,0.30000*
1,1,1.00000,0.51962,-0.30000*
%
%ADD57OVALD57*%

G04:AMPARAMS|DCode=58|XSize=1.9mm|YSize=1mm|CornerRadius=0mm|HoleSize=0mm|Usage=FLASHONLY|Rotation=330.000|XOffset=0mm|YOffset=0mm|HoleType=Round|Shape=Round|*
%AMOVALD58*
21,1,0.90000,1.00000,0.00000,0.00000,330.0*
1,1,1.00000,-0.38971,0.22500*
1,1,1.00000,0.38971,-0.22500*
%
%ADD58OVALD58*%

%TA.AperFunction,ViaPad*%
%ADD59C,0.70000*%
G36*
X2100000Y4275000D02*
Y3950000D01*
X2075000Y3925000D01*
X1975000D01*
X1950000Y3950000D01*
X1950000D01*
Y4075000D01*
X1925000Y4100000D01*
X1825000Y4200000D01*
X1825000Y4200000D01*
X2000000Y4375000D01*
X2100000Y4275000D01*
D02*
G37*
G36*
X2625000Y3850000D02*
X2825000D01*
X2900000Y3775000D01*
X3025000D01*
X3050000Y3750000D01*
Y3650000D01*
X3027554Y3627554D01*
X2869859D01*
X2757482Y3515177D01*
Y3157482D01*
X2725000Y3125000D01*
X2675000D01*
X2650000Y3150000D01*
Y3475000D01*
X2475000Y3650000D01*
X2475000D01*
Y3850000D01*
X2500000Y3875000D01*
X2600000D01*
X2625000Y3850000D01*
D02*
G37*
G36*
Y3375000D02*
Y3100000D01*
X2650000Y3075000D01*
X2700000D01*
X2725000Y3050000D01*
Y2900000D01*
X2700000Y2875000D01*
X2225000D01*
X2200000Y2900000D01*
Y3050000D01*
X2200000D01*
X2250000Y3100000D01*
X2525000D01*
Y3375000D01*
X2550000Y3400000D01*
X2600000D01*
X2625000Y3375000D01*
D02*
G37*
G36*
X2800000Y2750000D02*
X2800000D01*
Y2500000D01*
X2700000Y2400000D01*
X2275000D01*
X2225000Y2450000D01*
Y2525000D01*
X2275000Y2575000D01*
Y2775000D01*
X2325000Y2825000D01*
X2725000D01*
X2800000Y2750000D01*
D02*
G37*
D10*
X2625000Y900000D02*
G03*
X2610000Y935707I-50000J0D01*
G01*
D02*
G03*
X2575000Y950000I-35000J-35707D01*
G01*
X2450000Y3500000D02*
X2451422Y3498578D01*
X2542298D02*
X2543720Y3497157D01*
X1901434Y415999D02*
Y665263D01*
Y415999D02*
X1901771Y415662D01*
X1901097Y665600D02*
X1901434Y665263D01*
X925000Y2650000D02*
X1050000D01*
X650000D02*
X775000D01*
X4620000Y2045000D02*
X4625000Y2050000D01*
X4550412Y2045000D02*
X4620000D01*
X4530412Y2025000D02*
X4550412Y2045000D01*
X4525000Y2025000D02*
X4530412D01*
X2790000Y790412D02*
X2800000Y780412D01*
X2790000Y790412D02*
Y885000D01*
X2800000Y775000D02*
Y780412D01*
X2760000Y915000D02*
X2790000Y885000D01*
X2640000Y815412D02*
Y885000D01*
Y815412D02*
X2675000Y780412D01*
Y775000D02*
Y780412D01*
X2625000Y900000D02*
X2640000Y885000D01*
X2554107Y753827D02*
Y800893D01*
X2505000Y850000D02*
X2554107Y800893D01*
Y753827D02*
X2557934Y750000D01*
X2350000Y795000D02*
X2391173Y753827D01*
X2446173D01*
X2450000Y750000D01*
X425000Y1825000D02*
Y1925000D01*
X412004Y1917416D02*
X419588Y1925000D01*
X425000D01*
X294674Y1917416D02*
X412004D01*
X425000Y1930412D02*
X437457Y1942869D01*
Y2044973D01*
X425000Y1925000D02*
Y1930412D01*
X625000Y2300000D02*
X725000D01*
X4400000Y1825000D02*
X4500000D01*
X4400000Y1750000D02*
Y1825000D01*
X500000Y2300000D02*
Y2425000D01*
X2221173Y1828827D02*
X2225000Y1825000D01*
X2115000Y1830000D02*
X2120000Y1825000D01*
X2200000Y1944588D02*
X2221173Y1923414D01*
X1996173Y1816173D02*
Y1821173D01*
X2100000Y1950000D02*
X2103827Y1946173D01*
X2221173Y1828827D02*
Y1923414D01*
X1780000Y1560000D02*
X1796173Y1543827D01*
X2115000Y1830000D02*
Y1835000D01*
X2103827Y1846173D02*
Y1946173D01*
X1796173Y1428827D02*
Y1543827D01*
X2125000Y1250000D02*
X2250000D01*
X1970000Y1790000D02*
X1996173Y1816173D01*
X2125000Y1250000D02*
Y1400000D01*
X2200000Y1944588D02*
Y1950000D01*
X1796173Y1428827D02*
X1800000Y1425000D01*
X2103827Y1846173D02*
X2115000Y1835000D01*
X2610000Y935707D02*
Y1020000D01*
X2150000Y1050000D02*
X2250000D01*
X2350000Y795000D02*
Y800000D01*
X2155412Y1375000D02*
X2250000D01*
X2125000Y1400000D02*
X2130412D01*
X2155412Y1375000D01*
X1600000Y1850000D02*
Y1950000D01*
X1996173Y1821173D02*
Y1946173D01*
X1986927Y2353827D02*
X2021173D01*
X1930000Y2410754D02*
Y2465000D01*
X2021173Y2353827D02*
X2025000Y2350000D01*
X1930000Y2410754D02*
X1986927Y2353827D01*
X1925000Y2470000D02*
X1930000Y2465000D01*
X2100000Y1950000D02*
X2200000D01*
X2350000Y1250000D02*
X2350000D01*
Y1150000D02*
Y1250000D01*
X2350000Y1255000D02*
Y1375000D01*
X1700000Y1950000D02*
X1800000D01*
X1600000Y1750000D02*
Y1850000D01*
Y1950000D02*
X1700000D01*
X1555412Y2575000D02*
X1576585Y2553827D01*
X1671173D01*
X1550000Y2575000D02*
X1555412D01*
X3522219Y847219D02*
X3525000Y850000D01*
X3225000Y1300000D02*
Y1400000D01*
X3975000Y2600400D02*
Y2775000D01*
X3850000Y2600400D02*
Y2700000D01*
X3850000Y2700000D01*
X3475000Y2650000D02*
Y2750000D01*
X2957469Y3154469D02*
X2959500Y3156500D01*
X2955439Y3015953D02*
X2957469Y3017983D01*
Y3154469D01*
X4075000Y2700000D02*
X4175000D01*
X3749200Y3075000D02*
X3950000D01*
X3750000Y2600000D02*
Y2700000D01*
X3866884Y3041884D02*
X3896173Y3071173D01*
X3950000Y3025000D02*
Y3075000D01*
X1671173Y2553827D02*
X1675000Y2550000D01*
X2024526Y3274526D02*
X2025000Y3275000D01*
X1915000Y3274526D02*
X2024526D01*
X2450000Y3272500D02*
Y3500000D01*
X2300000Y3490000D02*
Y3500000D01*
X2323000Y3272500D02*
Y3467000D01*
X2300000Y3490000D02*
X2323000Y3467000D01*
X1921173Y3178827D02*
Y3268353D01*
Y3178827D02*
X1925000Y3175000D01*
X1915000Y3274526D02*
X1921173Y3268353D01*
X1911605Y3271132D02*
X1915000Y3274526D01*
X1791817Y3340346D02*
X1835094Y3315304D01*
X1911605Y3271132D01*
X1920000Y2235000D02*
Y2289246D01*
Y2235000D02*
X1925000Y2230000D01*
X1863073Y2346173D02*
X1920000Y2289246D01*
X1828827Y2346173D02*
X1863073D01*
X1825000Y2350000D02*
X1828827Y2346173D01*
X2938750Y1750000D02*
X3025000D01*
Y1850000D01*
X3215849D02*
X3250000Y1884151D01*
Y1887292D01*
X3254378Y1891669D01*
X3125000Y1850000D02*
X3215849D01*
X3254378Y1891669D02*
Y1897082D01*
X3850000Y2700000D02*
Y2900000D01*
X294674Y1317416D02*
Y1917416D01*
X1694588Y1425000D02*
X1700000D01*
X1603827Y1446173D02*
X1673414D01*
X1694588Y1425000D01*
X1600000Y1450000D02*
X1603827Y1446173D01*
X1700000Y1425000D02*
X1800000D01*
X3850000Y2900000D02*
X3866884Y2916884D01*
Y3041884D01*
X3750000Y2700000D02*
Y2775000D01*
X3125000Y1300000D02*
X3125000Y1300000D01*
X3125000Y1300000D02*
Y1400000D01*
X4326250Y2248750D02*
X4426250D01*
X4325000Y2250000D02*
X4326250Y2248750D01*
X4426250D02*
X4427500Y2247500D01*
X4575000Y2350000D02*
X4625000Y2300000D01*
Y2150000D02*
Y2300000D01*
X4523750Y2151250D02*
X4623750D01*
X4625000Y2150000D01*
X4522500Y2152500D02*
X4523750Y2151250D01*
X4625000Y1500000D02*
X4640000Y1485000D01*
X4695000D01*
X4700000Y1475000D02*
Y1480000D01*
X4695000Y1485000D02*
X4700000Y1480000D01*
Y1600000D02*
X4700000Y1600000D01*
X4650000Y1600000D02*
X4700000D01*
Y1375000D02*
Y1475000D01*
Y1375000D02*
X4700000Y1375000D01*
X4800000Y1375000D02*
Y1475000D01*
Y1375000D02*
X4800000Y1375000D01*
X4800000Y1475000D02*
Y1600000D01*
X4800000Y1600000D01*
X4700000Y1600000D02*
X4700000Y1600000D01*
X4800000D01*
X4600000Y1700000D02*
X4700000D01*
Y1825000D01*
X4700000Y1825000D01*
X4700000Y1700000D02*
X4800000D01*
Y1825000D01*
X4700000D02*
X4800000D01*
X4500000D02*
X4600000D01*
X2150000Y2675000D02*
X2150000Y2675000D01*
Y2550000D02*
Y2675000D01*
X1675000Y2550000D02*
X1675000Y2550000D01*
Y2675000D01*
X2705000Y1025000D02*
X2760000Y970000D01*
X2700000Y1025000D02*
X2705000D01*
X2760000Y915000D02*
Y970000D01*
X2500000Y850000D02*
X2505000D01*
X2500000Y950000D02*
X2575000D01*
X3340500Y2445764D02*
X3345500Y2440764D01*
X3451135D02*
X3451371Y2440529D01*
X3340500Y2445764D02*
Y2493500D01*
X3345500Y2440764D02*
X3451135D01*
X3465000Y2545000D02*
X3470000Y2550000D01*
X3465000Y2539999D02*
Y2545000D01*
X3455198Y2530198D02*
X3465000Y2539999D01*
X3455198Y2444355D02*
Y2530198D01*
X3470000Y2550000D02*
X3475000D01*
X3451371Y2440529D02*
X3455198Y2444355D01*
X2000000Y1950000D02*
X2100000D01*
X2250000Y1250000D02*
Y1375000D01*
X2125000Y1825000D02*
X2225000D01*
X2120000D02*
X2125000D01*
X2225000D02*
X2225000Y1825000D01*
X1603827Y1553827D02*
X1773827D01*
X1600000Y1550000D02*
X1603827Y1553827D01*
X1773827D02*
X1780000Y1560000D01*
X2003827Y1421173D02*
X2098415D01*
X2119588Y1400000D02*
X2125000D01*
X2000000Y1425000D02*
X2003827Y1421173D01*
X2098415D02*
X2119588Y1400000D01*
X2125000D02*
Y1500000D01*
X2125000Y1500000D02*
X2125000Y1500000D01*
X1900000Y1425000D02*
X2000000D01*
X1800000D02*
X1900000D01*
X1600000Y1450000D02*
Y1550000D01*
Y1650000D01*
Y1750000D01*
X1800000Y1950000D02*
X1900000D01*
X2000000D01*
Y1825000D02*
X2120000D01*
X1996173Y1821173D02*
X2000000Y1825000D01*
X1970000Y1795000D02*
X1996173Y1821173D01*
Y1946173D02*
X2000000Y1950000D01*
X1970000Y1790000D02*
Y1795000D01*
X2605000Y1125000D02*
X2695000D01*
X2600000Y1025000D02*
X2605000D01*
X2610000Y1020000D01*
X3085403Y1400000D02*
X3125000D01*
D11*
X1616770Y2887154D02*
G03*
X1617150Y2886937I24999J43302D01*
G01*
X3235000Y4030000D02*
X3355000Y4150000D01*
X3425000D01*
X3200000Y4030000D02*
X3235000D01*
X3425000Y4050000D02*
X3525000D01*
X3400000Y3925000D02*
X3500000D01*
X1551913Y2699619D02*
X1592479Y2740185D01*
Y2808345D01*
X1551913Y2576913D02*
Y2699619D01*
X1550000Y2575000D02*
X1551913Y2576913D01*
X1511817Y2855372D02*
X1592479Y2808345D01*
X1617150Y2886936D02*
X1712092Y2833227D01*
X2050370Y3450370D02*
X2058774D01*
X1956864Y3356864D02*
X2050370Y3450370D01*
X1923713Y3356864D02*
X1956864D01*
X1831817Y3409628D02*
X1923713Y3356864D01*
X1585089Y2905444D02*
X1616770Y2887154D01*
X1551817Y2924654D02*
X1585089Y2905444D01*
X4075000Y3025000D02*
Y3100000D01*
D12*
X2150000Y750000D02*
G03*
X2111771Y711771I0J-38229D01*
G01*
X2200000Y750000D02*
G03*
X2250000Y800000I0J50000D01*
G01*
X2525000Y1200000D02*
G03*
X2575000Y1250000I0J50000D01*
G01*
X2525000Y1200000D02*
G03*
X2475000Y1150000I0J-50000D01*
G01*
X2450000Y1050000D02*
G03*
X2475000Y1075000I0J25000D01*
G01*
X3051771Y153237D02*
X3059347Y145662D01*
X3161771D01*
X3051771Y153237D02*
Y302662D01*
X2926771Y409662D02*
X3044196D01*
X3051771Y302662D02*
Y402087D01*
X3044196Y409662D02*
X3051771Y402087D01*
X2801771D02*
X2809347Y409662D01*
X2926771D01*
X2801771Y302662D02*
Y402087D01*
X2794196Y145662D02*
X2801771Y153237D01*
X2691771Y145662D02*
X2794196D01*
X2801771Y153237D02*
Y302662D01*
X2581771Y153237D02*
Y302662D01*
Y153237D02*
X2589347Y145662D01*
X2691771D01*
X2574196Y409662D02*
X2581771Y402087D01*
Y302662D02*
Y402087D01*
X2456771Y409662D02*
X2574196D01*
X2339347D02*
X2456771D01*
X2331771Y402087D02*
X2339347Y409662D01*
X2331771Y302662D02*
Y402087D01*
X2106772Y145662D02*
X2324196D01*
X2331771Y153237D02*
Y302662D01*
X2324196Y145662D02*
X2331771Y153237D01*
X2111771Y415662D02*
Y711771D01*
X2106772Y145662D02*
X2111771Y150662D01*
Y415662D01*
X3264196Y145662D02*
X3271771Y153237D01*
Y367662D01*
X3161771Y145662D02*
X3264196D01*
X2150000Y750000D02*
X2200000D01*
X2250000Y800000D02*
X2250000D01*
Y925000D01*
X2350000Y1050000D02*
X2450000D01*
X2350000Y925000D02*
Y1050000D01*
X2475000Y1075000D02*
Y1150000D01*
X2575000Y1250000D02*
Y1260000D01*
D13*
X1817304Y3127245D02*
G03*
X1821933Y3123717I19264J20468D01*
G01*
X1780099Y3154448D02*
G03*
X1773689Y3159194I-23330J-24807D01*
G01*
X1761532Y3166213D02*
G03*
X1761606Y3166170I14188J24263D01*
G01*
X1780099Y3154448D02*
G03*
X1784615Y3151073I19000J20713D01*
G01*
X1826640Y3062581D02*
G03*
X1821712Y3066615I-20155J-19590D01*
G01*
X1792997Y3085182D02*
G03*
X1795279Y3083652I43571J62531D01*
G01*
X1748938Y3115748D02*
G03*
X1748796Y3115831I-17169J-29408D01*
G01*
X1751237Y3114280D02*
G03*
X1748938Y3115748I-19468J-27940D01*
G01*
X1808787Y3135261D02*
G03*
X1800525Y3141507I-32970J-35031D01*
G01*
X1936713Y2748286D02*
Y2817589D01*
X1953178Y2834054D01*
X1825000Y2685000D02*
X1888287Y2748286D01*
X2000000Y2675000D02*
Y2685000D01*
X1888287Y2748286D02*
Y2817589D01*
X2000000Y2665000D02*
Y2675000D01*
X1936713Y2748286D02*
X2000000Y2685000D01*
X2448427Y1717179D02*
X2490607Y1675000D01*
X2510000D01*
X2463519Y1626554D02*
X2508446D01*
X2510000Y1625000D01*
X2400000Y1690073D02*
X2463519Y1626554D01*
X2270059Y2075000D02*
X2448427Y1896632D01*
X1971376Y2075000D02*
X2270059D01*
X2400000Y1690073D02*
Y1876573D01*
X2250000Y2026573D02*
X2400000Y1876573D01*
X2448427Y1717179D02*
Y1896632D01*
X1951317Y2026573D02*
X2250000D01*
X1989053Y2169053D02*
X2020000Y2200000D01*
X1989053Y2160288D02*
Y2169053D01*
X1949213Y2120448D02*
X1989053Y2160288D01*
X1949213Y2097163D02*
Y2120448D01*
X1860946Y2160288D02*
Y2169054D01*
X1830000Y2200000D02*
X1860946Y2169054D01*
X1949213Y2097163D02*
X1971376Y2075000D01*
X1900786Y2077105D02*
X1951317Y2026573D01*
X1900786Y2077105D02*
Y2120448D01*
X1860946Y2160288D02*
X1900786Y2120448D01*
X2020000Y2200000D02*
Y2230000D01*
X1830000Y2200000D02*
Y2230000D01*
X1953178Y2639053D02*
X1974053D01*
X1989053Y2530947D02*
X2020000Y2500000D01*
Y2470000D02*
Y2500000D01*
X1989053Y2530947D02*
Y2542180D01*
X1936713Y2594520D02*
X1989053Y2542180D01*
X1936713Y2622588D02*
X1953178Y2639053D01*
X1936713Y2594520D02*
Y2622588D01*
X1974053Y2639053D02*
X2000000Y2665000D01*
X1825000Y2675000D02*
Y2685000D01*
X1850947Y2639053D02*
X1871822D01*
X1825000Y2665000D02*
X1850947Y2639053D01*
X1845946Y2552180D02*
X1888287Y2594520D01*
X1825000Y2665000D02*
Y2675000D01*
X1888287Y2594520D02*
Y2622588D01*
X1871822Y2639053D02*
X1888287Y2622588D01*
X1845946Y2485947D02*
Y2552180D01*
X1830000Y2470000D02*
X1845946Y2485947D01*
X1953178Y2834054D02*
X1959054D01*
X1975000Y2850000D01*
X1871822Y2834054D02*
X1888287Y2817589D01*
X1865946Y2834054D02*
X1871822D01*
X1850000Y2850000D02*
X1865946Y2834054D01*
X1784615Y3151073D02*
X1800524Y3141507D01*
X1780099Y3154448D02*
X1780099Y3154448D01*
X1761606Y3166169D02*
X1773689Y3159194D01*
X1808787Y3135261D02*
X1817304Y3127245D01*
X1821933Y3123717D02*
X1848193Y3107701D01*
X1826640Y3062581D02*
X1827373Y3061827D01*
X1795279Y3083652D02*
X1821712Y3066615D01*
X1785966Y3090081D02*
X1792997Y3085182D01*
X1751237Y3114280D02*
X1785966Y3090081D01*
X1786666Y3089380D01*
X1775817Y3100230D02*
X1785966Y3090081D01*
X1748938Y3115748D02*
X1775817Y3100230D01*
X1736625Y3122858D02*
X1748938Y3115748D01*
X1848193Y3107701D02*
X1871232D01*
X1936713Y2982412D02*
Y3042219D01*
X1871232Y3107701D02*
X1936713Y3042219D01*
X1953178Y2965947D02*
X1959054D01*
X1936713Y2982412D02*
X1953178Y2965947D01*
X1827373Y3061827D02*
X1847206Y3041994D01*
X1959054Y2965947D02*
X1975000Y2950000D01*
X1847206Y3041994D02*
X1868453D01*
X1865946Y2965947D02*
X1871822D01*
X1888287Y2982412D01*
Y3022161D01*
X1868453Y3041994D02*
X1888287Y3022161D01*
X1850000Y2950000D02*
X1865946Y2965947D01*
X1684317Y3154058D02*
X1736625Y3122858D01*
X1709317Y3197452D02*
X1761532Y3166213D01*
X1736625Y3122858D02*
X1748796Y3115831D01*
X1684317Y3154058D02*
Y3154151D01*
X1760105Y3024201D02*
X1786666Y3070207D01*
X1749256Y3013352D02*
X1760105Y3024201D01*
X1730082Y3013352D02*
X1749256D01*
X1687571Y3037894D02*
X1730082Y3013352D01*
X1786666Y3070207D02*
Y3089380D01*
X1736625Y3122858D02*
Y3122858D01*
X1684317Y3154151D02*
X1736625Y3122858D01*
X1634317Y3067548D02*
X1687571Y3037894D01*
X1557412Y3175363D02*
X1568261Y3164514D01*
X1557412Y3194536D02*
X1584458Y3241381D01*
X1595307Y3252231D02*
X1614390D01*
X1644244Y3235233D02*
X1656627Y3228083D01*
X1568261Y3164514D02*
X1607009Y3142142D01*
X1557412Y3175363D02*
Y3194536D01*
X1584458Y3241381D02*
X1595307Y3252231D01*
X1614390D02*
X1644244Y3235233D01*
X1656627Y3228083D02*
Y3228083D01*
X1709317Y3197452D01*
X1607009Y3142142D02*
X1659317Y3110850D01*
D14*
X2020000Y2470000D02*
D03*
X1925000D02*
D03*
X1830000D02*
D03*
Y2230000D02*
D03*
X1925000D02*
D03*
X2020000D02*
D03*
D15*
X3025000Y1850000D02*
D03*
X3125000D02*
D03*
X3325000Y850000D02*
D03*
X3425000D02*
D03*
X4800000Y1475000D02*
D03*
X4700000D02*
D03*
X4700000Y1825000D02*
D03*
X4600000D02*
D03*
X2250000Y1250000D02*
D03*
X2350000D02*
D03*
X2250000Y1375000D02*
D03*
X2350000D02*
D03*
X3225000Y1400000D02*
D03*
X3125000D02*
D03*
X2350000Y925000D02*
D03*
X2250000D02*
D03*
X2350000Y1050000D02*
D03*
X2250000D02*
D03*
X2250000Y800000D02*
D03*
X2350000D02*
D03*
X4050000Y825000D02*
D03*
X3950000D02*
D03*
X4050000Y950000D02*
D03*
X3950000D02*
D03*
X3500000Y3925000D02*
D03*
X3600000D02*
D03*
X437457Y2044973D02*
D03*
X537457D02*
D03*
X3750000Y2700000D02*
D03*
X3850000D02*
D03*
X3975000D02*
D03*
X4075000D02*
D03*
D16*
X2575000Y1260000D02*
D03*
X2625000D02*
D03*
X2675000D02*
D03*
X2725000D02*
D03*
X2775000D02*
D03*
X2825000D02*
D03*
X2875000D02*
D03*
X2925000D02*
D03*
Y1740000D02*
D03*
X2875000D02*
D03*
X2825000D02*
D03*
X2775000D02*
D03*
X2725000D02*
D03*
X2675000D02*
D03*
X2625000D02*
D03*
X2575000D02*
D03*
D17*
X2990000Y1325000D02*
D03*
Y1375000D02*
D03*
Y1425000D02*
D03*
Y1475000D02*
D03*
Y1525000D02*
D03*
Y1575000D02*
D03*
Y1625000D02*
D03*
Y1675000D02*
D03*
X2510000D02*
D03*
Y1625000D02*
D03*
Y1575000D02*
D03*
Y1525000D02*
D03*
Y1475000D02*
D03*
Y1425000D02*
D03*
Y1375000D02*
D03*
Y1325000D02*
D03*
D18*
X2750000Y1500000D02*
D03*
D19*
X3271771Y367662D02*
D03*
D20*
X3161771Y145662D02*
D03*
X2691771D02*
D03*
D21*
X3051771Y302662D02*
D03*
X2801771D02*
D03*
X2581771D02*
D03*
X2331771D02*
D03*
D22*
X2926771Y409662D02*
D03*
X2456771D02*
D03*
D23*
X2111771Y415662D02*
D03*
D24*
X2106772Y145662D02*
D03*
D25*
X1901771Y415662D02*
D03*
D26*
X2959500Y2493500D02*
D03*
X3086500D02*
D03*
X3213500D02*
D03*
X3340500D02*
D03*
X2959500Y3156500D02*
D03*
X3086500D02*
D03*
X3213500D02*
D03*
X3340500D02*
D03*
D27*
X4700000Y1700000D02*
D03*
Y1600000D02*
D03*
X3425000Y4150000D02*
D03*
Y4050000D02*
D03*
X3475000Y2550000D02*
D03*
Y2650000D02*
D03*
X2600000Y1125000D02*
D03*
Y1025000D02*
D03*
X2700000Y1125000D02*
D03*
Y1025000D02*
D03*
X2500000Y850000D02*
D03*
Y950000D02*
D03*
X3175000Y2300000D02*
D03*
Y2200000D02*
D03*
X3325000Y2300000D02*
D03*
Y2200000D02*
D03*
X3000000Y2300000D02*
D03*
Y2200000D02*
D03*
X2750000Y2300000D02*
D03*
Y2200000D02*
D03*
X2875000Y2300000D02*
D03*
Y2200000D02*
D03*
X4625000Y2150000D02*
D03*
Y2050000D02*
D03*
X2250000Y1500000D02*
D03*
Y1600000D02*
D03*
X1975000Y2950000D02*
D03*
Y2850000D02*
D03*
X2125000Y1500000D02*
D03*
Y1600000D02*
D03*
Y1825000D02*
D03*
Y1725000D02*
D03*
X1850000Y2950000D02*
D03*
Y2850000D02*
D03*
X775000Y2750000D02*
D03*
Y2650000D02*
D03*
X925000Y2750000D02*
D03*
Y2650000D02*
D03*
X500000Y2300000D02*
D03*
Y2200000D02*
D03*
X3325000Y1750000D02*
D03*
Y1650000D02*
D03*
X625000Y2200000D02*
D03*
Y2300000D02*
D03*
X3625000Y2775000D02*
D03*
Y2875000D02*
D03*
D28*
X4383750Y1525000D02*
D03*
Y1625000D02*
D03*
Y1575000D02*
D03*
X4566250D02*
D03*
Y1525000D02*
D03*
Y1625000D02*
D03*
D29*
X4450000Y1691250D02*
D03*
X4400000Y1691200D02*
D03*
X4500000Y1691250D02*
D03*
X4550000D02*
D03*
X4400000Y1458800D02*
D03*
X4450000D02*
D03*
X4500000D02*
D03*
X4550000D02*
D03*
D30*
X2450000Y2677500D02*
D03*
D31*
X2196000Y3272500D02*
D03*
X2323000D02*
D03*
X2450000D02*
D03*
X2577000D02*
D03*
X2704000D02*
D03*
D32*
X2025000Y4020000D02*
D03*
X2120000Y3780000D02*
D03*
X1930000D02*
D03*
D33*
X2355000Y3750000D02*
D03*
X2545000D02*
D03*
D34*
X3200000Y4030000D02*
D03*
Y4220000D02*
D03*
D35*
X2925000Y3550000D02*
D03*
Y3400000D02*
D03*
X2950000Y3850000D02*
D03*
Y3700000D02*
D03*
D36*
X2450000Y3500000D02*
D03*
X2300000D02*
D03*
X2625000Y900000D02*
D03*
X2775000D02*
D03*
X2150000Y2675000D02*
D03*
X2000000D02*
D03*
X1675000D02*
D03*
X1825000D02*
D03*
D37*
X2750000Y3964300D02*
D03*
Y3735700D02*
D03*
D38*
X4427500Y2247500D02*
D03*
X4522500D02*
D03*
X4427500Y2152500D02*
D03*
X4522500D02*
D03*
D39*
X1791817Y3340346D02*
D03*
X1831817Y3409628D02*
D03*
X1511817Y2855372D02*
D03*
X1551817Y2924654D02*
D03*
D40*
X1759317Y3284054D02*
D03*
X1734317Y3240753D02*
D03*
X1709317Y3197452D02*
D03*
X1584317Y2980946D02*
D03*
X1609317Y3024247D02*
D03*
X1634317Y3067548D02*
D03*
X1659317Y3110850D02*
D03*
X1684317Y3154151D02*
D03*
D41*
X1780000Y1560000D02*
D03*
X1970000D02*
D03*
X1780000Y1790000D02*
D03*
X1970000D02*
D03*
D42*
X3800000Y3387500D02*
D03*
Y3762500D02*
D03*
X3200000D02*
D03*
Y3387500D02*
D03*
D43*
X294674Y1317416D02*
D03*
X669674D02*
D03*
Y1917416D02*
D03*
X294674D02*
D03*
D44*
X3850000Y2900000D02*
D03*
D45*
X3755000Y2825000D02*
D03*
Y2875000D02*
D03*
Y2925000D02*
D03*
Y2975000D02*
D03*
X3945000D02*
D03*
Y2925000D02*
D03*
Y2875000D02*
D03*
Y2825000D02*
D03*
D46*
X3744424Y1227536D02*
X3752406Y1235518D01*
X3097904Y1227536D02*
X3744424D01*
X3936746Y1683415D02*
X3958415D01*
X4125000Y1850000D01*
X3760594Y1507263D02*
X3936746Y1683415D01*
X4125000Y1850000D02*
Y2250000D01*
X684590Y1302500D02*
X1732500D01*
X669674Y1317416D02*
X684590Y1302500D01*
X669674Y1317416D02*
Y1917416D01*
X4171166Y721166D02*
X4220400Y770400D01*
X3961716Y721166D02*
X4171166D01*
X3950000Y732881D02*
X3961716Y721166D01*
X3950000Y732881D02*
Y825000D01*
X4425000Y1750000D02*
X4450000Y1725000D01*
X4400000Y1750000D02*
X4425000D01*
X4450000Y1691250D02*
Y1725000D01*
X4425000Y2025000D02*
X4426250Y2026250D01*
Y2151250D02*
X4427500Y2152500D01*
X4426250Y2026250D02*
Y2151250D01*
X500000Y2200000D02*
X625000D01*
X625000Y2200000D01*
X537457Y2044973D02*
Y2049973D01*
X625000Y2137516D02*
Y2200000D01*
X537457Y2049973D02*
X625000Y2137516D01*
X3225000Y850000D02*
X3325000D01*
X3575000Y950000D02*
X3700000Y825000D01*
X2900000Y950000D02*
X3575000D01*
X2765000Y1085000D02*
X2900000Y950000D01*
X3800000Y2450000D02*
X3925000D01*
X3212500Y3762500D02*
X3800000D01*
X3925000Y2450000D02*
X4125000Y2250000D01*
X3550000Y3075000D02*
X3642500D01*
X3740000Y2977500D01*
X3752500D02*
X3755000Y2975000D01*
X3740000Y2977500D02*
X3752500D01*
X3550000Y2625000D02*
Y2950000D01*
X3650000Y2975000D02*
X3700000Y2925000D01*
X3575000Y2975000D02*
X3650000D01*
X3550000Y2950000D02*
X3575000Y2975000D01*
X3945000Y3020000D02*
X3950000Y3025000D01*
X3450000Y2925000D02*
Y3512500D01*
X3240000Y3722500D02*
X3450000Y3512500D01*
X3212500Y3762500D02*
X3240000Y3735000D01*
Y3722500D02*
Y3735000D01*
X775000Y3000000D02*
X1135141Y3360141D01*
X775000Y2750000D02*
Y3000000D01*
X1135141Y3360141D02*
X1526840D01*
X1677852Y3272953D01*
X1734317Y3240753D01*
X1025000Y2750000D02*
X1325259Y3050259D01*
X925000Y2750000D02*
X1025000D01*
X1325259Y3050259D02*
X1461492D01*
X1527332Y3012245D01*
X1584317Y2980946D01*
X2927500Y1750000D02*
X2938750D01*
X2925000Y1740000D02*
Y1747500D01*
X2927500Y1750000D01*
X3100000Y1925000D02*
X3115433Y1940433D01*
X3165433D02*
X3175000Y1950000D01*
X2975000Y1925000D02*
X3100000D01*
X2875000Y1825000D02*
X2975000Y1925000D01*
X3115433Y1940433D02*
X3165433D01*
X2875000Y1740000D02*
Y1825000D01*
X579617Y2019973D02*
X669674Y1929916D01*
X557457Y2019973D02*
X579617D01*
X537457Y2039973D02*
X557457Y2019973D01*
X537457Y2039973D02*
Y2044973D01*
X669674Y1917416D02*
Y1929916D01*
X3600000Y3920000D02*
Y3925000D01*
Y3920000D02*
X3730000Y3790000D01*
X3772500D01*
X3800000Y3762500D01*
X3200000D02*
X3212500D01*
X3575000Y2075000D02*
Y2450000D01*
X3325000Y1825000D02*
X3575000Y2075000D01*
X3275000Y1825000D02*
X3325000D01*
X3225000Y1775000D02*
X3275000Y1825000D01*
X3225000Y1750000D02*
Y1775000D01*
X3125000Y1650000D02*
X3225000Y1750000D01*
X3086470Y1650000D02*
X3125000D01*
X3945000Y2975000D02*
Y3020000D01*
X3750000Y2822500D02*
X3752500Y2825000D01*
X3750000Y2775000D02*
Y2822500D01*
X3752500Y2825000D02*
X3755000D01*
X3945000D02*
X3957500D01*
X3975000Y2807500D01*
Y2800000D02*
Y2807500D01*
X3755000Y2875000D02*
X3755000Y2875000D01*
X3625000Y2875000D02*
X3755000D01*
X3700000Y2925000D02*
X3755000D01*
X3550000Y2625000D02*
X3650000Y2525000D01*
X4000000D01*
X4025000Y2500000D02*
X4025000D01*
X4000000Y2525000D02*
X4025000Y2500000D01*
X3511915Y1436915D02*
X4025000Y1950000D01*
X4200000Y1800000D02*
Y2325000D01*
X3875000Y1475000D02*
X4200000Y1800000D01*
X3373484Y1436915D02*
X3511915D01*
X3285399Y1525000D02*
X3373484Y1436915D01*
X2990000Y1525000D02*
X3285399D01*
X4025000Y2500000D02*
X4200000Y2325000D01*
X3800000Y1150000D02*
X3875000Y1225000D01*
X3106250Y1150000D02*
X3800000D01*
X2996250Y1260000D02*
X3106250Y1150000D01*
X2925000Y1260000D02*
X2996250D01*
X3054600Y1270839D02*
Y1299333D01*
X3031433Y1322500D02*
X3054600Y1299333D01*
Y1270839D02*
X3097904Y1227536D01*
X2992500Y1322500D02*
X3031433D01*
X2990000Y1325000D02*
X2992500Y1322500D01*
X3945000Y2875000D02*
X4070000D01*
X4075000Y2870000D01*
X3945000Y2925000D02*
X4025000D01*
X4050000Y2950000D01*
X3253033Y1475000D02*
X3300000Y1428033D01*
Y1400000D02*
Y1428033D01*
X2990000Y1475000D02*
X3253033D01*
X3325000Y1375000D02*
X3950000D01*
X4000000Y1325000D01*
X3300000Y1400000D02*
X3325000Y1375000D01*
X4575000Y1350000D02*
Y1418800D01*
X4550000Y1443800D02*
X4575000Y1418800D01*
X4550000Y1443800D02*
Y1458800D01*
X4445000Y1696250D02*
X4450000Y1691250D01*
X4400000Y1691200D02*
X4400000Y1691200D01*
X4220400Y1170400D02*
X4274999Y1224999D01*
Y1299999D02*
X4275000Y1300000D01*
X4274999Y1224999D02*
Y1299999D01*
X4220400Y770400D02*
Y1170400D01*
X4275000Y1550000D02*
X4288530D01*
X4313530Y1575000D02*
X4383750D01*
X4288530Y1550000D02*
X4313530Y1575000D01*
X3950000Y950000D02*
Y1106250D01*
X4368750Y1525000D01*
X4383750D01*
X2845000Y1170084D02*
X2932542Y1082542D01*
X2845000Y1170084D02*
Y1196170D01*
X2825000Y1260000D02*
X2827500Y1257500D01*
Y1213669D02*
Y1257500D01*
Y1213669D02*
X2845000Y1196170D01*
X3850000Y950000D02*
X3950000D01*
X3950000Y950000D01*
X3800000Y1000000D02*
X3850000Y950000D01*
X2805000Y1101568D02*
X2906568Y1000000D01*
X3800000D01*
X2777500Y1207101D02*
X2805000Y1179601D01*
X2777500Y1207101D02*
Y1257500D01*
X2805000Y1101568D02*
Y1179601D01*
X2885000Y1210806D02*
Y1212738D01*
X2877500Y1220238D02*
Y1257500D01*
X2885000Y1210806D02*
X2900805Y1195000D01*
X2775000Y1260000D02*
X2777500Y1257500D01*
X2900805Y1195000D02*
X2953076D01*
X2877500Y1220238D02*
X2885000Y1212738D01*
X2727500Y1200533D02*
X2765000Y1163033D01*
Y1085000D02*
Y1163033D01*
X3700000Y825000D02*
X3950000D01*
X3950000Y825000D01*
X2725000Y1260000D02*
X2727500Y1257500D01*
Y1200533D02*
Y1257500D01*
X3425000Y850000D02*
X3525000D01*
X2998076Y1150000D02*
X3000000D01*
X2953076Y1195000D02*
X2998076Y1150000D01*
X2875000Y1260000D02*
X2877500Y1257500D01*
X3325000Y2300000D02*
X3425000D01*
X3425000Y2300000D01*
X3061470Y1625000D02*
X3086470Y1650000D01*
X2990000Y1625000D02*
X3061470D01*
X3325000Y1750000D02*
X3425000D01*
X3325000Y1600000D02*
X3375000Y1550000D01*
X3325000Y1600000D02*
Y1650000D01*
X3165804Y1575000D02*
X3212561Y1621757D01*
X2990000Y1575000D02*
X3165804D01*
X3087211Y3014339D02*
X3087922Y3013628D01*
X3086500Y3156500D02*
X3087211Y3155789D01*
Y3014339D02*
Y3155789D01*
X3219127Y2499127D02*
Y2636520D01*
X3224753Y2642147D01*
X3213500Y2493500D02*
X3219127Y2499127D01*
X3276698Y2582731D02*
X3325000Y2631033D01*
Y2725000D01*
X3276698Y2396698D02*
Y2582731D01*
X3150000Y2800000D02*
X3340500Y2990500D01*
X3088858Y2333599D02*
X3130259Y2375000D01*
X3150000Y2386716D02*
Y2800000D01*
X3130259Y2375000D02*
X3138284D01*
X3180000Y2300000D02*
X3276698Y2396698D01*
X3138284Y2375000D02*
X3150000Y2386716D01*
X3340500Y2990500D02*
Y3156500D01*
X2875000Y2625000D02*
X3213500Y2963500D01*
X2875000Y2425000D02*
Y2625000D01*
X3213500Y2963500D02*
Y3156500D01*
X3250000Y2150000D02*
X3270000D01*
X3320000Y2200000D02*
X3325000D01*
X3270000Y2150000D02*
X3320000Y2200000D01*
X3088432Y1988432D02*
X3250000Y2150000D01*
X2825000Y1843432D02*
X2970000Y1988432D01*
X3158432Y2140000D02*
Y2183432D01*
X2970000Y1988432D02*
X3088432D01*
X3158432Y2183432D02*
X3175000Y2200000D01*
X2953431Y2028432D02*
X3046863D01*
X3158432Y2140000D01*
X2993431Y2068431D02*
X3088858Y2163858D01*
Y2333599D01*
X2931568Y2068431D02*
X2993431D01*
X2825000Y1740000D02*
Y1843432D01*
X3175000Y2300000D02*
X3180000D01*
X2775000Y1850000D02*
X2953431Y2028432D01*
X2775000Y1740000D02*
Y1850000D01*
X2931568Y2125000D02*
X2975000D01*
X3000000Y2150000D01*
Y2200000D01*
X2725000Y1740000D02*
Y1861863D01*
X2931568Y2068431D01*
X2625000Y1875000D02*
X2875000Y2125000D01*
Y2200000D01*
X2675000Y1868431D02*
X2931568Y2125000D01*
X2675000Y1740000D02*
Y1868431D01*
X2625000Y1740000D02*
Y1875000D01*
X3005000Y2300000D02*
X3025000Y2320000D01*
X3000000Y2300000D02*
X3005000D01*
X3025000Y2320000D02*
Y2377000D01*
X3086500Y2438500D01*
Y2493500D01*
X2894017Y2344017D02*
X2944984Y2394984D01*
X2875000Y2300000D02*
X2894017Y2319017D01*
Y2344017D01*
X2944984Y2394984D02*
Y2478984D01*
X2959500Y2493500D01*
X2775000Y2325000D02*
X2875000Y2425000D01*
X2755000Y2300000D02*
X2775000Y2320000D01*
Y2325000D01*
X2750000Y2300000D02*
X2755000D01*
X2575000Y1900000D02*
X2750000Y2075000D01*
Y2200000D01*
X2575000Y1740000D02*
Y1900000D01*
X2625000Y1175000D02*
Y1260000D01*
Y1175000D02*
X2625000Y1175000D01*
X2069999Y1675000D02*
X2120000Y1725000D01*
X2125000D01*
X1885000Y1675000D02*
X2069999D01*
X1780000Y1780000D02*
X1885000Y1675000D01*
X1780000Y1780000D02*
Y1790000D01*
X2010000Y1600000D02*
X2125000D01*
X1970000Y1560000D02*
X2010000Y1600000D01*
X2125000D02*
X2250000D01*
X2125000Y1725000D02*
X2275000D01*
X2325000Y1675000D01*
Y1600000D02*
Y1675000D01*
Y1600000D02*
X2450000Y1475000D01*
X2350000Y1500000D02*
X2425000Y1425000D01*
X2250000Y1500000D02*
X2350000D01*
X2425000Y1425000D02*
X2510000D01*
X2450000Y1475000D02*
X2510000D01*
X2675000Y1175000D02*
Y1260000D01*
Y1175000D02*
X2675000Y1175000D01*
X2425000Y1325000D02*
X2425000Y1325000D01*
X2510000D01*
X2400000Y1375000D02*
X2510000D01*
X3039597Y1425000D02*
X3062500Y1402097D01*
X2990000Y1425000D02*
X3039597D01*
D47*
X2451422Y3498578D02*
X2542298D01*
X3800000Y3387500D02*
Y3500000D01*
X3075000Y3375000D02*
X3085000Y3385000D01*
X3197500D02*
X3200000Y3387500D01*
X3085000Y3385000D02*
X3197500D01*
D48*
X4400000Y1750000D02*
X4400000Y1750000D01*
X4400000Y1691200D02*
Y1750000D01*
X4550000Y1700000D02*
X4600000D01*
X2200000Y3276500D02*
Y3554792D01*
X2245208Y3600000D02*
X2575000D01*
X2200000Y3554792D02*
X2245208Y3600000D01*
X2196000Y3272500D02*
X2200000Y3276500D01*
X3625000Y2675000D02*
Y2775000D01*
X3975000Y2775000D02*
Y2800000D01*
X4450000Y1350000D02*
X4500000Y1400000D01*
Y1458800D01*
X4450000Y1350000D02*
Y1458800D01*
X4400000Y1400000D02*
X4450000Y1350000D01*
X4400000Y1400000D02*
Y1458800D01*
X4600000Y1525000D02*
X4600000Y1525000D01*
X4566250Y1525000D02*
X4600000D01*
X4600000Y1525000D02*
X4625000Y1500000D01*
X4625000Y1575000D02*
X4650000Y1600000D01*
X4566250Y1575000D02*
X4625000D01*
Y1625000D02*
X4625000Y1625000D01*
X4566250Y1625000D02*
X4625000D01*
X4625000Y1625000D02*
X4650000Y1600000D01*
X4650000D01*
X4550000Y1691250D02*
Y1700000D01*
X4325000Y1625000D02*
X4383750D01*
X4275000Y1675000D02*
X4325000Y1625000D01*
X4050000Y825000D02*
X4150000D01*
X4150000Y825000D01*
X4050000Y950000D02*
X4050000Y950000D01*
X4050000Y950000D02*
Y1050000D01*
Y950000D02*
X4050000Y950000D01*
D49*
X3050000Y4225000D02*
X3195000D01*
X3200000Y4220000D01*
X2950000Y3850000D02*
Y3950000D01*
X3049600Y3550000D02*
X3050000Y3549600D01*
X2925000Y3550000D02*
X3049600D01*
X2915000Y3400000D02*
X2925000D01*
X2839038Y3324038D02*
X2915000Y3400000D01*
X2839038Y3071863D02*
Y3324038D01*
X2792175Y3025000D02*
X2839038Y3071863D01*
X2650000Y3025000D02*
X2792175D01*
X2950000Y3700000D02*
X2960000D01*
X3010000Y3650000D01*
X3150000D01*
X3250000Y3550000D01*
X4075000Y2870000D02*
X4083137D01*
X4105610Y2892472D01*
X4217472D01*
X4250000Y2925000D01*
D50*
X2700000Y4100000D02*
X2800000D01*
X2785000Y3984300D02*
Y4085000D01*
X2750000Y3964300D02*
X2765000D01*
X2785000Y3984300D01*
Y4085000D02*
X2800000Y4100000D01*
X2715000Y3984300D02*
X2735000Y3964300D01*
X2700000Y4100000D02*
X2715000Y4085000D01*
X2735000Y3964300D02*
X2750000D01*
X2715000Y3984300D02*
Y4085000D01*
X4053701Y3121299D02*
X4075000Y3100000D01*
X4053701Y3121299D02*
Y3246299D01*
X1425000Y2575000D02*
X1550000D01*
X1300000D02*
X1425000D01*
X2075000Y3450000D02*
Y3550000D01*
Y3650000D01*
X2175000D01*
X1975000D02*
X2075000D01*
X1975000D02*
Y3735000D01*
X1930000Y3780000D02*
X1975000Y3735000D01*
X1925000Y3175000D02*
X2024526Y3274526D01*
X2025000Y3175000D02*
Y3275000D01*
X2355000Y3815000D02*
Y3880000D01*
Y3750000D02*
Y3815000D01*
X2400000Y3860000D01*
Y3925000D01*
X2355000Y3880000D02*
X2400000Y3925000D01*
X2125000Y3850000D02*
X2200046Y3925046D01*
X2242829D01*
X2125000Y3785000D02*
Y3850000D01*
X2120000Y3780000D02*
X2125000Y3785000D01*
X1700000Y3975000D02*
X1895000Y3780000D01*
X1930000D01*
X1925000Y3175000D02*
X2025000D01*
X4025000Y3275000D02*
X4053701Y3246299D01*
D51*
X4075000Y2975000D02*
Y3025000D01*
X4050000Y2950000D02*
X4075000Y2975000D01*
X2625000Y1150000D02*
Y1175000D01*
X2615000Y1140000D02*
X2625000Y1150000D01*
X2605000Y1125000D02*
X2615000Y1135000D01*
X2600000Y1125000D02*
X2605000D01*
X2615000Y1135000D02*
Y1140000D01*
X2685000Y1135000D02*
Y1140000D01*
X2675000Y1150000D02*
X2685000Y1140000D01*
X2695000Y1125000D02*
X2700000D01*
X2685000Y1135000D02*
X2695000Y1125000D01*
X2675000Y1150000D02*
Y1175000D01*
X2419999Y1325000D02*
X2425000D01*
X2350000Y1250000D02*
Y1255000D01*
X2419999Y1325000D01*
X2350000Y1375000D02*
X2400000D01*
D52*
X1224900Y2118300D02*
D03*
X3824900D02*
D03*
D53*
X2524900D02*
D03*
D54*
X4601852Y910632D02*
D03*
X430650Y912472D02*
D03*
X2531083Y4526275D02*
D03*
D55*
X1925000Y4275000D02*
D03*
X1700000Y3975000D02*
D03*
X4250000Y2925000D02*
D03*
X4025000Y3275000D02*
D03*
D56*
X1418564Y2943853D02*
D03*
X1708564Y3446147D02*
D03*
D57*
X1823115Y3544556D02*
D03*
X1390615Y2795444D02*
D03*
D58*
X1026884Y3005444D02*
D03*
X1459384Y3754556D02*
D03*
D59*
X1050067Y1521031D02*
D03*
X1013246Y841679D02*
D03*
X3480457Y726090D02*
D03*
X3649555Y734475D02*
D03*
X3832627Y730282D02*
D03*
X568466Y1472614D02*
D03*
X423325Y1438747D02*
D03*
X1586410Y772383D02*
D03*
X1850219Y869016D02*
D03*
X2072475Y933760D02*
D03*
X1992269Y1250717D02*
D03*
X3310085Y1073721D02*
D03*
X3128195D02*
D03*
X3378409Y1300852D02*
D03*
X3752406Y1235518D02*
D03*
X3661730Y1299098D02*
D03*
X3760594Y1507263D02*
D03*
X3665039Y1448797D02*
D03*
X3870978Y1113008D02*
D03*
X3983459Y1462857D02*
D03*
X4075263Y1395038D02*
D03*
X4192679Y1246122D02*
D03*
X4178038Y1574736D02*
D03*
X4362204Y2736293D02*
D03*
X3684760Y2345146D02*
D03*
X3395614Y2022475D02*
D03*
X3600000Y1900000D02*
D03*
X2172523Y2339279D02*
D03*
X3001178Y2879759D02*
D03*
X2052995Y3046483D02*
D03*
X3292977Y3870405D02*
D03*
X3919215Y3624270D02*
D03*
X3600000Y3500000D02*
D03*
X3701122Y3642964D02*
D03*
X3506397Y3664773D02*
D03*
X2549904Y3949851D02*
D03*
X2950260Y4133671D02*
D03*
X2922219Y4340859D02*
D03*
X1355068Y3646079D02*
D03*
X1600000Y3600000D02*
D03*
X1500000Y3500000D02*
D03*
X1300000D02*
D03*
X1400000Y3200000D02*
D03*
X1200000Y3100000D02*
D03*
X654681Y2759055D02*
D03*
X1121384Y2543654D02*
D03*
X1200000Y2700000D02*
D03*
X900000Y2900000D02*
D03*
X1500000Y2200000D02*
D03*
X1700000Y2400000D02*
D03*
X1500000D02*
D03*
X1300000D02*
D03*
X900000Y2500000D02*
D03*
X1100000Y2400000D02*
D03*
X800000Y1900000D02*
D03*
Y2100000D02*
D03*
X1500000Y1700000D02*
D03*
X1200000Y1500000D02*
D03*
X767583Y1451439D02*
D03*
X1058559Y1384377D02*
D03*
X791087Y1181262D02*
D03*
X422116Y1606868D02*
D03*
X511157Y1331123D02*
D03*
X1732500Y1302500D02*
D03*
X2543720Y3497157D02*
D03*
X1901097Y665600D02*
D03*
X650000Y2650000D02*
D03*
X1050000D02*
D03*
X2800000Y775000D02*
D03*
X2675000D02*
D03*
X2557934Y750000D02*
D03*
X2450000D02*
D03*
X425000Y1825000D02*
D03*
Y1925000D02*
D03*
X725000Y2300000D02*
D03*
X4500000Y1825000D02*
D03*
X4425000Y2025000D02*
D03*
X4400000Y1825000D02*
D03*
X500000Y2425000D02*
D03*
X2125000Y1250000D02*
D03*
X3225000Y850000D02*
D03*
X2150000Y1050000D02*
D03*
X1600000Y1950000D02*
D03*
X2400000Y2475000D02*
D03*
X2525000D02*
D03*
X2650000D02*
D03*
X2275000D02*
D03*
X2000000Y1950000D02*
D03*
X2025000Y2350000D02*
D03*
X2200000Y1950000D02*
D03*
X2350000Y1150000D02*
D03*
X1700000Y1950000D02*
D03*
X1600000Y1850000D02*
D03*
X2100000Y1950000D02*
D03*
X1675000Y2550000D02*
D03*
X2725000Y2700000D02*
D03*
X3225000Y1300000D02*
D03*
X3850000Y2600400D02*
D03*
X3975000D02*
D03*
X3800000Y2450000D02*
D03*
X3475000Y2750000D02*
D03*
X2955439Y3015953D02*
D03*
X2950000Y3950000D02*
D03*
X3050000Y4225000D02*
D03*
X3525000Y4050000D02*
D03*
X3400000Y3925000D02*
D03*
X3800000Y3500000D02*
D03*
X3075000Y3375000D02*
D03*
X3050000Y3549600D02*
D03*
X2800000Y4100000D02*
D03*
X2700000D02*
D03*
X3250000Y3550000D02*
D03*
X2650000Y3025000D02*
D03*
Y2925000D02*
D03*
X4175000Y2700000D02*
D03*
X3749200Y3075000D02*
D03*
X3550000D02*
D03*
X3950000D02*
D03*
X3750000Y2600000D02*
D03*
X1712092Y2833227D02*
D03*
X1300000Y2575000D02*
D03*
X1425000D02*
D03*
X1550000D02*
D03*
X2025000Y3275000D02*
D03*
X2075000Y3450000D02*
D03*
Y3550000D02*
D03*
X2175000Y3650000D02*
D03*
X2075000D02*
D03*
X1975000D02*
D03*
X2725000Y2575000D02*
D03*
X2550000Y2925000D02*
D03*
X2450000D02*
D03*
X2350000D02*
D03*
X2250000D02*
D03*
X2550000Y3025000D02*
D03*
X2450000D02*
D03*
X2350000D02*
D03*
X2250000D02*
D03*
X2400000Y3925000D02*
D03*
X2242829Y3925046D02*
D03*
X2025000Y3175000D02*
D03*
X1925000D02*
D03*
X1825000Y2350000D02*
D03*
X3025000Y1750000D02*
D03*
X3254378Y1897082D02*
D03*
X2750000Y1625000D02*
D03*
X2625000D02*
D03*
Y1375000D02*
D03*
X2750000D02*
D03*
X2875000D02*
D03*
Y1500000D02*
D03*
X2625000D02*
D03*
X2750000D02*
D03*
X2875000Y1625000D02*
D03*
X1700000Y1425000D02*
D03*
X3450000Y2925000D02*
D03*
X3575000Y2450000D02*
D03*
X3625000Y2675000D02*
D03*
X4025000Y1950000D02*
D03*
X3875000Y1475000D02*
D03*
Y1225000D02*
D03*
X3125000Y1300000D02*
D03*
X4000000Y1325000D02*
D03*
X4325000Y2250000D02*
D03*
X4575000Y2350000D02*
D03*
X4525000Y2025000D02*
D03*
X4800000Y1600000D02*
D03*
X4575000Y1350000D02*
D03*
X4275000Y1675000D02*
D03*
X4800000Y1825000D02*
D03*
Y1700000D02*
D03*
X4450000Y1350000D02*
D03*
X4800000Y1375000D02*
D03*
X4700000D02*
D03*
X4275000Y1300000D02*
D03*
X4150000Y825000D02*
D03*
X4050000Y1050000D02*
D03*
X4275000Y1550000D02*
D03*
X2932542Y1082542D02*
D03*
X3525000Y850000D02*
D03*
X3000000Y1150000D02*
D03*
X2150000Y2550000D02*
D03*
X3425000Y2300000D02*
D03*
Y1750000D02*
D03*
X3375000Y1550000D02*
D03*
X3212561Y1621757D02*
D03*
X3451371Y2440529D02*
D03*
X3087922Y3013628D02*
D03*
X3224753Y2642147D02*
D03*
X3325000Y2725000D02*
D03*
X3175000Y1950000D02*
D03*
X2225000Y1825000D02*
D03*
X2125000Y1400000D02*
D03*
X2000000Y1425000D02*
D03*
X1900000D02*
D03*
X1800000D02*
D03*
X1600000Y1450000D02*
D03*
Y1550000D02*
D03*
Y1650000D02*
D03*
Y1750000D02*
D03*
X1800000Y1950000D02*
D03*
X1900000D02*
D03*
%TF.MD5,c4e54393dc87bec0272c7487dd9d61fa*%
M02*
