%TF.GenerationSoftware,Altium Limited,Altium Designer,22.7.1 (60)*%
G04 Layer_Color=8388736*
%FSLAX45Y45*%
%MOMM*%
%TF.SameCoordinates,ACC7CE07-661A-46B9-B338-6EC4A6F7B09F*%
%TF.FilePolarity,Negative*%
%TF.FileFunction,Soldermask,Top*%
%TF.Part,Single*%
G01*
G75*
%TA.AperFunction,SMDPad,CuDef*%
G04:AMPARAMS|DCode=44|XSize=0.9mm|YSize=1.6mm|CornerRadius=0.0495mm|HoleSize=0mm|Usage=FLASHONLY|Rotation=180.000|XOffset=0mm|YOffset=0mm|HoleType=Round|Shape=RoundedRectangle|*
%AMROUNDEDRECTD44*
21,1,0.90000,1.50100,0,0,180.0*
21,1,0.80100,1.60000,0,0,180.0*
1,1,0.09900,-0.40050,0.75050*
1,1,0.09900,0.40050,0.75050*
1,1,0.09900,0.40050,-0.75050*
1,1,0.09900,-0.40050,-0.75050*
%
%ADD44ROUNDEDRECTD44*%
G04:AMPARAMS|DCode=45|XSize=0.5mm|YSize=0.25mm|CornerRadius=0.05mm|HoleSize=0mm|Usage=FLASHONLY|Rotation=180.000|XOffset=0mm|YOffset=0mm|HoleType=Round|Shape=RoundedRectangle|*
%AMROUNDEDRECTD45*
21,1,0.50000,0.15000,0,0,180.0*
21,1,0.40000,0.25000,0,0,180.0*
1,1,0.10000,-0.20000,0.07500*
1,1,0.10000,0.20000,0.07500*
1,1,0.10000,0.20000,-0.07500*
1,1,0.10000,-0.20000,-0.07500*
%
%ADD45ROUNDEDRECTD45*%
%TA.AperFunction,WasherPad*%
%ADD64C,4.00000*%
%ADD65C,3.50000*%
%ADD66C,7.00000*%
%TA.AperFunction,ComponentPad*%
%ADD67C,2.70320*%
%ADD68C,1.20000*%
G04:AMPARAMS|DCode=69|XSize=2.3mm|YSize=1.1mm|CornerRadius=0mm|HoleSize=0mm|Usage=FLASHONLY|Rotation=330.000|XOffset=0mm|YOffset=0mm|HoleType=Round|Shape=Round|*
%AMOVALD69*
21,1,1.20000,1.10000,0.00000,0.00000,330.0*
1,1,1.10000,-0.51962,0.30000*
1,1,1.10000,0.51962,-0.30000*
%
%ADD69OVALD69*%

G04:AMPARAMS|DCode=70|XSize=2mm|YSize=1.1mm|CornerRadius=0mm|HoleSize=0mm|Usage=FLASHONLY|Rotation=330.000|XOffset=0mm|YOffset=0mm|HoleType=Round|Shape=Round|*
%AMOVALD70*
21,1,0.90000,1.10000,0.00000,0.00000,330.0*
1,1,1.10000,-0.38971,0.22500*
1,1,1.10000,0.38971,-0.22500*
%
%ADD70OVALD70*%

%TA.AperFunction,SMDPad,CuDef*%
G04:AMPARAMS|DCode=77|XSize=0.8032mm|YSize=1.4032mm|CornerRadius=0.1766mm|HoleSize=0mm|Usage=FLASHONLY|Rotation=180.000|XOffset=0mm|YOffset=0mm|HoleType=Round|Shape=RoundedRectangle|*
%AMROUNDEDRECTD77*
21,1,0.80320,1.05000,0,0,180.0*
21,1,0.45000,1.40320,0,0,180.0*
1,1,0.35320,-0.22500,0.52500*
1,1,0.35320,0.22500,0.52500*
1,1,0.35320,0.22500,-0.52500*
1,1,0.35320,-0.22500,-0.52500*
%
%ADD77ROUNDEDRECTD77*%
G04:AMPARAMS|DCode=78|XSize=0.8032mm|YSize=0.9032mm|CornerRadius=0.1766mm|HoleSize=0mm|Usage=FLASHONLY|Rotation=0.000|XOffset=0mm|YOffset=0mm|HoleType=Round|Shape=RoundedRectangle|*
%AMROUNDEDRECTD78*
21,1,0.80320,0.55000,0,0,0.0*
21,1,0.45000,0.90320,0,0,0.0*
1,1,0.35320,0.22500,-0.27500*
1,1,0.35320,-0.22500,-0.27500*
1,1,0.35320,-0.22500,0.27500*
1,1,0.35320,0.22500,0.27500*
%
%ADD78ROUNDEDRECTD78*%
G04:AMPARAMS|DCode=79|XSize=0.35mm|YSize=0.8mm|CornerRadius=0.0625mm|HoleSize=0mm|Usage=FLASHONLY|Rotation=180.000|XOffset=0mm|YOffset=0mm|HoleType=Round|Shape=RoundedRectangle|*
%AMROUNDEDRECTD79*
21,1,0.35000,0.67500,0,0,180.0*
21,1,0.22500,0.80000,0,0,180.0*
1,1,0.12500,-0.11250,0.33750*
1,1,0.12500,0.11250,0.33750*
1,1,0.12500,0.11250,-0.33750*
1,1,0.12500,-0.11250,-0.33750*
%
%ADD79ROUNDEDRECTD79*%
G04:AMPARAMS|DCode=80|XSize=0.35mm|YSize=0.8mm|CornerRadius=0.0625mm|HoleSize=0mm|Usage=FLASHONLY|Rotation=270.000|XOffset=0mm|YOffset=0mm|HoleType=Round|Shape=RoundedRectangle|*
%AMROUNDEDRECTD80*
21,1,0.35000,0.67500,0,0,270.0*
21,1,0.22500,0.80000,0,0,270.0*
1,1,0.12500,-0.33750,-0.11250*
1,1,0.12500,-0.33750,0.11250*
1,1,0.12500,0.33750,0.11250*
1,1,0.12500,0.33750,-0.11250*
%
%ADD80ROUNDEDRECTD80*%
G04:AMPARAMS|DCode=81|XSize=3.59mm|YSize=3.59mm|CornerRadius=0.2425mm|HoleSize=0mm|Usage=FLASHONLY|Rotation=270.000|XOffset=0mm|YOffset=0mm|HoleType=Round|Shape=RoundedRectangle|*
%AMROUNDEDRECTD81*
21,1,3.59000,3.10500,0,0,270.0*
21,1,3.10500,3.59000,0,0,270.0*
1,1,0.48500,-1.55250,-1.55250*
1,1,0.48500,-1.55250,1.55250*
1,1,0.48500,1.55250,1.55250*
1,1,0.48500,1.55250,-1.55250*
%
%ADD81ROUNDEDRECTD81*%
G04:AMPARAMS|DCode=82|XSize=0.8032mm|YSize=1.9032mm|CornerRadius=0.1766mm|HoleSize=0mm|Usage=FLASHONLY|Rotation=0.000|XOffset=0mm|YOffset=0mm|HoleType=Round|Shape=RoundedRectangle|*
%AMROUNDEDRECTD82*
21,1,0.80320,1.55000,0,0,0.0*
21,1,0.45000,1.90320,0,0,0.0*
1,1,0.35320,0.22500,-0.77500*
1,1,0.35320,-0.22500,-0.77500*
1,1,0.35320,-0.22500,0.77500*
1,1,0.35320,0.22500,0.77500*
%
%ADD82ROUNDEDRECTD82*%
G04:AMPARAMS|DCode=83|XSize=0.8032mm|YSize=0.9032mm|CornerRadius=0.1766mm|HoleSize=0mm|Usage=FLASHONLY|Rotation=90.000|XOffset=0mm|YOffset=0mm|HoleType=Round|Shape=RoundedRectangle|*
%AMROUNDEDRECTD83*
21,1,0.80320,0.55000,0,0,90.0*
21,1,0.45000,0.90320,0,0,90.0*
1,1,0.35320,0.27500,0.22500*
1,1,0.35320,0.27500,-0.22500*
1,1,0.35320,-0.27500,-0.22500*
1,1,0.35320,-0.27500,0.22500*
%
%ADD83ROUNDEDRECTD83*%
%ADD84R,0.70200X0.40200*%
%ADD85R,0.40200X0.70200*%
G04:AMPARAMS|DCode=86|XSize=3.4032mm|YSize=2.3032mm|CornerRadius=0.1541mm|HoleSize=0mm|Usage=FLASHONLY|Rotation=0.000|XOffset=0mm|YOffset=0mm|HoleType=Round|Shape=RoundedRectangle|*
%AMROUNDEDRECTD86*
21,1,3.40320,1.99500,0,0,0.0*
21,1,3.09500,2.30320,0,0,0.0*
1,1,0.30820,1.54750,-0.99750*
1,1,0.30820,-1.54750,-0.99750*
1,1,0.30820,-1.54750,0.99750*
1,1,0.30820,1.54750,0.99750*
%
%ADD86ROUNDEDRECTD86*%
G04:AMPARAMS|DCode=87|XSize=0.8032mm|YSize=2.3032mm|CornerRadius=0.1526mm|HoleSize=0mm|Usage=FLASHONLY|Rotation=0.000|XOffset=0mm|YOffset=0mm|HoleType=Round|Shape=RoundedRectangle|*
%AMROUNDEDRECTD87*
21,1,0.80320,1.99800,0,0,0.0*
21,1,0.49800,2.30320,0,0,0.0*
1,1,0.30520,0.24900,-0.99900*
1,1,0.30520,-0.24900,-0.99900*
1,1,0.30520,-0.24900,0.99900*
1,1,0.30520,0.24900,0.99900*
%
%ADD87ROUNDEDRECTD87*%
%ADD88R,1.00320X1.00320*%
G04:AMPARAMS|DCode=89|XSize=1.2032mm|YSize=1.9032mm|CornerRadius=0.2266mm|HoleSize=0mm|Usage=FLASHONLY|Rotation=0.000|XOffset=0mm|YOffset=0mm|HoleType=Round|Shape=RoundedRectangle|*
%AMROUNDEDRECTD89*
21,1,1.20320,1.45000,0,0,0.0*
21,1,0.75000,1.90320,0,0,0.0*
1,1,0.45320,0.37500,-0.72500*
1,1,0.45320,-0.37500,-0.72500*
1,1,0.45320,-0.37500,0.72500*
1,1,0.45320,0.37500,0.72500*
%
%ADD89ROUNDEDRECTD89*%
G04:AMPARAMS|DCode=90|XSize=1.2032mm|YSize=1.9032mm|CornerRadius=0.2266mm|HoleSize=0mm|Usage=FLASHONLY|Rotation=90.000|XOffset=0mm|YOffset=0mm|HoleType=Round|Shape=RoundedRectangle|*
%AMROUNDEDRECTD90*
21,1,1.20320,1.45000,0,0,90.0*
21,1,0.75000,1.90320,0,0,90.0*
1,1,0.45320,0.72500,0.37500*
1,1,0.45320,0.72500,-0.37500*
1,1,0.45320,-0.72500,-0.37500*
1,1,0.45320,-0.72500,0.37500*
%
%ADD90ROUNDEDRECTD90*%
G04:AMPARAMS|DCode=91|XSize=1.0032mm|YSize=1.2032mm|CornerRadius=0.2016mm|HoleSize=0mm|Usage=FLASHONLY|Rotation=270.000|XOffset=0mm|YOffset=0mm|HoleType=Round|Shape=RoundedRectangle|*
%AMROUNDEDRECTD91*
21,1,1.00320,0.80000,0,0,270.0*
21,1,0.60000,1.20320,0,0,270.0*
1,1,0.40320,-0.40000,-0.30000*
1,1,0.40320,-0.40000,0.30000*
1,1,0.40320,0.40000,0.30000*
1,1,0.40320,0.40000,-0.30000*
%
%ADD91ROUNDEDRECTD91*%
G04:AMPARAMS|DCode=92|XSize=1.0032mm|YSize=1.2032mm|CornerRadius=0.2016mm|HoleSize=0mm|Usage=FLASHONLY|Rotation=180.000|XOffset=0mm|YOffset=0mm|HoleType=Round|Shape=RoundedRectangle|*
%AMROUNDEDRECTD92*
21,1,1.00320,0.80000,0,0,180.0*
21,1,0.60000,1.20320,0,0,180.0*
1,1,0.40320,-0.30000,0.40000*
1,1,0.40320,0.30000,0.40000*
1,1,0.40320,0.30000,-0.40000*
1,1,0.40320,-0.30000,-0.40000*
%
%ADD92ROUNDEDRECTD92*%
G04:AMPARAMS|DCode=93|XSize=1.6032mm|YSize=1.9032mm|CornerRadius=0.2766mm|HoleSize=0mm|Usage=FLASHONLY|Rotation=270.000|XOffset=0mm|YOffset=0mm|HoleType=Round|Shape=RoundedRectangle|*
%AMROUNDEDRECTD93*
21,1,1.60320,1.35000,0,0,270.0*
21,1,1.05000,1.90320,0,0,270.0*
1,1,0.55320,-0.67500,-0.52500*
1,1,0.55320,-0.67500,0.52500*
1,1,0.55320,0.67500,0.52500*
1,1,0.55320,0.67500,-0.52500*
%
%ADD93ROUNDEDRECTD93*%
%ADD94R,0.75320X0.75320*%
G04:AMPARAMS|DCode=95|XSize=0.88mm|YSize=1.78mm|CornerRadius=0mm|HoleSize=0mm|Usage=FLASHONLY|Rotation=240.000|XOffset=0mm|YOffset=0mm|HoleType=Round|Shape=Rectangle|*
%AMROTATEDRECTD95*
4,1,4,-0.55076,0.82605,0.99076,-0.06395,0.55076,-0.82605,-0.99076,0.06395,-0.55076,0.82605,0.0*
%
%ADD95ROTATEDRECTD95*%

G04:AMPARAMS|DCode=96|XSize=0.74mm|YSize=1.64mm|CornerRadius=0mm|HoleSize=0mm|Usage=FLASHONLY|Rotation=240.000|XOffset=0mm|YOffset=0mm|HoleType=Round|Shape=Rectangle|*
%AMROTATEDRECTD96*
4,1,4,-0.52514,0.73043,0.89514,-0.08957,0.52514,-0.73043,-0.89514,0.08957,-0.52514,0.73043,0.0*
%
%ADD96ROTATEDRECTD96*%

G04:AMPARAMS|DCode=97|XSize=0.58mm|YSize=1.78mm|CornerRadius=0mm|HoleSize=0mm|Usage=FLASHONLY|Rotation=240.000|XOffset=0mm|YOffset=0mm|HoleType=Round|Shape=Rectangle|*
%AMROTATEDRECTD97*
4,1,4,-0.62576,0.69615,0.91576,-0.19385,0.62576,-0.69615,-0.91576,0.19385,-0.62576,0.69615,0.0*
%
%ADD97ROTATEDRECTD97*%

G04:AMPARAMS|DCode=98|XSize=1.5032mm|YSize=1.3032mm|CornerRadius=0.1566mm|HoleSize=0mm|Usage=FLASHONLY|Rotation=270.000|XOffset=0mm|YOffset=0mm|HoleType=Round|Shape=RoundedRectangle|*
%AMROUNDEDRECTD98*
21,1,1.50320,0.99000,0,0,270.0*
21,1,1.19000,1.30320,0,0,270.0*
1,1,0.31320,-0.49500,-0.59500*
1,1,0.31320,-0.49500,0.59500*
1,1,0.31320,0.49500,0.59500*
1,1,0.31320,0.49500,-0.59500*
%
%ADD98ROUNDEDRECTD98*%
%ADD99R,1.20320X0.95320*%
%ADD100R,0.95320X1.20320*%
D44*
X3850000Y2900000D02*
D03*
D45*
X3755000Y2825000D02*
D03*
Y2875000D02*
D03*
Y2925000D02*
D03*
Y2975000D02*
D03*
X3945000D02*
D03*
Y2925000D02*
D03*
Y2875000D02*
D03*
Y2825000D02*
D03*
D64*
X1224900Y2118300D02*
D03*
X3824900D02*
D03*
D65*
X2524900D02*
D03*
D66*
X4601852Y910632D02*
D03*
X430650Y912472D02*
D03*
X2531083Y4526275D02*
D03*
D67*
X1925000Y4275000D02*
D03*
X1700000Y3975000D02*
D03*
X4250000Y2925000D02*
D03*
X4025000Y3275000D02*
D03*
D68*
X1418564Y2943853D02*
D03*
X1708564Y3446147D02*
D03*
D69*
X1823115Y3544556D02*
D03*
X1390615Y2795444D02*
D03*
D70*
X1026884Y3005444D02*
D03*
X1459384Y3754556D02*
D03*
D77*
X2020000Y2470000D02*
D03*
X1925000D02*
D03*
X1830000D02*
D03*
Y2230000D02*
D03*
X1925000D02*
D03*
X2020000D02*
D03*
D78*
X3025000Y1850000D02*
D03*
X3125000D02*
D03*
X3325000Y850000D02*
D03*
X3425000D02*
D03*
X4800000Y1475000D02*
D03*
X4700000D02*
D03*
X4700000Y1825000D02*
D03*
X4600000D02*
D03*
X2250000Y1250000D02*
D03*
X2350000D02*
D03*
X2250000Y1375000D02*
D03*
X2350000D02*
D03*
X3225000Y1400000D02*
D03*
X3125000D02*
D03*
X2350000Y925000D02*
D03*
X2250000D02*
D03*
X2350000Y1050000D02*
D03*
X2250000D02*
D03*
X2250000Y800000D02*
D03*
X2350000D02*
D03*
X4050000Y825000D02*
D03*
X3950000D02*
D03*
X4050000Y950000D02*
D03*
X3950000D02*
D03*
X3500000Y3925000D02*
D03*
X3600000D02*
D03*
X437457Y2044973D02*
D03*
X537457D02*
D03*
X3750000Y2700000D02*
D03*
X3850000D02*
D03*
X3975000D02*
D03*
X4075000D02*
D03*
D79*
X2575000Y1260000D02*
D03*
X2625000D02*
D03*
X2675000D02*
D03*
X2725000D02*
D03*
X2775000D02*
D03*
X2825000D02*
D03*
X2875000D02*
D03*
X2925000D02*
D03*
Y1740000D02*
D03*
X2875000D02*
D03*
X2825000D02*
D03*
X2775000D02*
D03*
X2725000D02*
D03*
X2675000D02*
D03*
X2625000D02*
D03*
X2575000D02*
D03*
D80*
X2990000Y1325000D02*
D03*
Y1375000D02*
D03*
Y1425000D02*
D03*
Y1475000D02*
D03*
Y1525000D02*
D03*
Y1575000D02*
D03*
Y1625000D02*
D03*
Y1675000D02*
D03*
X2510000D02*
D03*
Y1625000D02*
D03*
Y1575000D02*
D03*
Y1525000D02*
D03*
Y1475000D02*
D03*
Y1425000D02*
D03*
Y1375000D02*
D03*
Y1325000D02*
D03*
D81*
X2750000Y1500000D02*
D03*
D82*
X2959500Y2493500D02*
D03*
X3086500D02*
D03*
X3213500D02*
D03*
X3340500D02*
D03*
X2959500Y3156500D02*
D03*
X3086500D02*
D03*
X3213500D02*
D03*
X3340500D02*
D03*
D83*
X4700000Y1700000D02*
D03*
Y1600000D02*
D03*
X3425000Y4150000D02*
D03*
Y4050000D02*
D03*
X3475000Y2550000D02*
D03*
Y2650000D02*
D03*
X2600000Y1125000D02*
D03*
Y1025000D02*
D03*
X2700000Y1125000D02*
D03*
Y1025000D02*
D03*
X2500000Y850000D02*
D03*
Y950000D02*
D03*
X3175000Y2300000D02*
D03*
Y2200000D02*
D03*
X3325000Y2300000D02*
D03*
Y2200000D02*
D03*
X3000000Y2300000D02*
D03*
Y2200000D02*
D03*
X2750000Y2300000D02*
D03*
Y2200000D02*
D03*
X2875000Y2300000D02*
D03*
Y2200000D02*
D03*
X4625000Y2150000D02*
D03*
Y2050000D02*
D03*
X2250000Y1500000D02*
D03*
Y1600000D02*
D03*
X1975000Y2950000D02*
D03*
Y2850000D02*
D03*
X2125000Y1500000D02*
D03*
Y1600000D02*
D03*
Y1825000D02*
D03*
Y1725000D02*
D03*
X1850000Y2950000D02*
D03*
Y2850000D02*
D03*
X775000Y2750000D02*
D03*
Y2650000D02*
D03*
X925000Y2750000D02*
D03*
Y2650000D02*
D03*
X500000Y2300000D02*
D03*
Y2200000D02*
D03*
X3325000Y1750000D02*
D03*
Y1650000D02*
D03*
X625000Y2200000D02*
D03*
Y2300000D02*
D03*
X3625000Y2775000D02*
D03*
Y2875000D02*
D03*
D84*
X4383750Y1525000D02*
D03*
Y1625000D02*
D03*
Y1575000D02*
D03*
X4566250D02*
D03*
Y1525000D02*
D03*
Y1625000D02*
D03*
D85*
X4450000Y1691250D02*
D03*
X4400000Y1691200D02*
D03*
X4500000Y1691250D02*
D03*
X4550000D02*
D03*
X4400000Y1458800D02*
D03*
X4450000D02*
D03*
X4500000D02*
D03*
X4550000D02*
D03*
D86*
X2450000Y2677500D02*
D03*
D87*
X2196000Y3272500D02*
D03*
X2323000D02*
D03*
X2450000D02*
D03*
X2577000D02*
D03*
X2704000D02*
D03*
D88*
X2025000Y4020000D02*
D03*
X2120000Y3780000D02*
D03*
X1930000D02*
D03*
D89*
X2355000Y3750000D02*
D03*
X2545000D02*
D03*
D90*
X3200000Y4030000D02*
D03*
Y4220000D02*
D03*
D91*
X2925000Y3550000D02*
D03*
Y3400000D02*
D03*
X2950000Y3850000D02*
D03*
Y3700000D02*
D03*
D92*
X2450000Y3500000D02*
D03*
X2300000D02*
D03*
X2625000Y900000D02*
D03*
X2775000D02*
D03*
X2150000Y2675000D02*
D03*
X2000000D02*
D03*
X1675000D02*
D03*
X1825000D02*
D03*
D93*
X2750000Y3964300D02*
D03*
Y3735700D02*
D03*
D94*
X4427500Y2247500D02*
D03*
X4522500D02*
D03*
X4427500Y2152500D02*
D03*
X4522500D02*
D03*
D95*
X1791817Y3340346D02*
D03*
X1551817Y2924654D02*
D03*
D96*
X1831817Y3409628D02*
D03*
X1511817Y2855372D02*
D03*
D97*
X1759317Y3284054D02*
D03*
X1734317Y3240753D02*
D03*
X1709317Y3197452D02*
D03*
X1584317Y2980946D02*
D03*
X1609317Y3024247D02*
D03*
X1634317Y3067548D02*
D03*
X1659317Y3110850D02*
D03*
X1684317Y3154151D02*
D03*
D98*
X1780000Y1560000D02*
D03*
X1970000D02*
D03*
X1780000Y1790000D02*
D03*
X1970000D02*
D03*
D99*
X3800000Y3387500D02*
D03*
Y3762500D02*
D03*
X3200000D02*
D03*
Y3387500D02*
D03*
D100*
X294674Y1317416D02*
D03*
X669674D02*
D03*
Y1917416D02*
D03*
X294674D02*
D03*
%TF.MD5,b6aa287779af16a703352f8a76253849*%
M02*
